<svg width="24" height="16" viewBox="0 0 24 16" fill="none" xmlns="http://www.w3.org/2000/svg">
<g clip-path="url(#clip0_602_1267)">
<path d="M23 0.258057H12.3871L0.421875 8.53904V15.4218H23.2258L24 14.9677V13.5299L23.4961 13.0508V11.6914L24 11.3179V9.10595L23.5469 8.67184V7.2812L24 6.89392V4.68198L23.5469 4.28125V3.06249L24 2.47004V1.5C24 1 24 0.258057 23 0.258057Z" fill="#E5646E"/>
<path d="M12.0156 2.47003H24V4.68202H12.0156V2.47003Z" fill="#F2F2F6"/>
<path d="M12 6.89398L12.3871 9.10597H24V6.89398H12Z" fill="#F2F2F6"/>
<path d="M0.774188 12.6452V8.70312L0 9.10597V11.318L0.328125 11.5977V13.0508L0 13.5299V14.9677C0 15.3953 0.346641 15.7419 0.774188 15.7419H23.2258C23.6534 15.7419 24 15.3953 24 14.9677H3.0968C1.81406 14.9677 0.774188 13.9279 0.774188 12.6452Z" fill="#E5646E"/>
<path d="M12.3871 0.258057H0.774188L0.28125 1.03224L0.774188 9.10595H12.3871V0.258057Z" fill="#5055A0"/>
<path d="M0.774188 0.258057C0.346641 0.258057 0 0.604651 0 1.03224V9.10595H0.774188V0.258057Z" fill="#5055A0"/>
<path d="M1.55224 1.98397C1.33825 1.98397 1.16327 1.81062 1.16327 1.59687C1.16327 1.38312 1.3345 1.20978 1.54849 1.20978H1.55229C1.76627 1.20978 1.93938 1.38312 1.93938 1.59687C1.93938 1.81062 1.76618 1.98397 1.55224 1.98397Z" fill="white"/>
<path d="M1.55224 5.08065C1.33825 5.08065 1.16327 4.9073 1.16327 4.69355C1.16327 4.4798 1.3345 4.30646 1.54849 4.30646H1.55229C1.76627 4.30646 1.93938 4.4798 1.93938 4.69355C1.93938 4.9073 1.76618 5.08065 1.55224 5.08065Z" fill="white"/>
<path d="M1.55224 8.17752C1.33825 8.17752 1.16327 8.00417 1.16327 7.79042C1.16327 7.57667 1.3345 7.40332 1.54849 7.40332H1.55229C1.76627 7.40332 1.93938 7.57667 1.93938 7.79042C1.93938 8.00417 1.76618 8.17752 1.55224 8.17752Z" fill="white"/>
<path d="M1.55224 3.53231C1.33825 3.53231 1.16327 3.35896 1.16327 3.14521C1.16327 2.93146 1.3345 2.75812 1.54849 2.75812H1.55229C1.76627 2.75812 1.93938 2.93146 1.93938 3.14521C1.93933 3.35896 1.76618 3.53231 1.55224 3.53231Z" fill="#F2F2F6"/>
<path d="M1.55224 6.62917C1.33825 6.62917 1.16327 6.45582 1.16327 6.24207C1.16327 6.02832 1.3345 5.85498 1.54849 5.85498H1.55229C1.76627 5.85498 1.93938 6.02832 1.93938 6.24207C1.93938 6.45582 1.76618 6.62917 1.55224 6.62917Z" fill="#F2F2F6"/>
<path d="M10.8425 1.98397C10.6285 1.98397 10.4535 1.81062 10.4535 1.59687C10.4535 1.38312 10.6247 1.20978 10.8387 1.20978H10.8425C11.0565 1.20978 11.2296 1.38312 11.2296 1.59687C11.2296 1.81062 11.0564 1.98397 10.8425 1.98397Z" fill="white"/>
<path d="M10.8425 5.08065C10.6285 5.08065 10.4535 4.9073 10.4535 4.69355C10.4535 4.4798 10.6247 4.30646 10.8387 4.30646H10.8425C11.0565 4.30646 11.2296 4.4798 11.2296 4.69355C11.2296 4.9073 11.0564 5.08065 10.8425 5.08065Z" fill="white"/>
<path d="M10.8425 8.17752C10.6285 8.17752 10.4535 8.00417 10.4535 7.79042C10.4535 7.57667 10.6247 7.40332 10.8387 7.40332H10.8425C11.0565 7.40332 11.2296 7.57667 11.2296 7.79042C11.2296 8.00417 11.0564 8.17752 10.8425 8.17752Z" fill="white"/>
<path d="M10.8424 3.53243C10.6284 3.53243 10.4534 3.35908 10.4534 3.14533C10.4534 2.93158 10.6247 2.75824 10.8386 2.75824H10.8424C11.0564 2.75824 11.2295 2.93158 11.2295 3.14533C11.2295 3.35908 11.0564 3.53243 10.8424 3.53243Z" fill="#F2F2F6"/>
<path d="M10.8424 6.62917C10.6284 6.62917 10.4534 6.45582 10.4534 6.24207C10.4534 6.02832 10.6247 5.85498 10.8386 5.85498H10.8424C11.0564 5.85498 11.2295 6.02832 11.2295 6.24207C11.2295 6.45582 11.0564 6.62917 10.8424 6.62917Z" fill="#F2F2F6"/>
<path d="M3.87469 1.98397C3.6607 1.98397 3.48572 1.81062 3.48572 1.59687C3.48572 1.38312 3.65695 1.20978 3.87094 1.20978H3.87473C4.08872 1.20978 4.26183 1.38312 4.26183 1.59687C4.26183 1.81062 4.08867 1.98397 3.87469 1.98397Z" fill="#F2F2F6"/>
<path d="M3.87469 5.08077C3.6607 5.08077 3.48572 4.90742 3.48572 4.69367C3.48572 4.47992 3.65695 4.30658 3.87094 4.30658H3.87473C4.08872 4.30658 4.26183 4.47992 4.26183 4.69367C4.26183 4.90742 4.08867 5.08077 3.87469 5.08077Z" fill="#F2F2F6"/>
<path d="M3.87469 8.17752C3.6607 8.17752 3.48572 8.00417 3.48572 7.79042C3.48572 7.57667 3.65695 7.40332 3.87094 7.40332H3.87473C4.08872 7.40332 4.26183 7.57667 4.26183 7.79042C4.26183 8.00417 4.08867 8.17752 3.87469 8.17752Z" fill="#F2F2F6"/>
<path d="M3.87469 3.53231C3.6607 3.53231 3.48572 3.35896 3.48572 3.14521C3.48572 2.93146 3.65695 2.75812 3.87094 2.75812H3.87473C4.08872 2.75812 4.26183 2.93146 4.26183 3.14521C4.26178 3.35896 4.08867 3.53231 3.87469 3.53231Z" fill="white"/>
<path d="M3.87469 6.62917C3.6607 6.62917 3.48572 6.45582 3.48572 6.24207C3.48572 6.02832 3.65695 5.85498 3.87094 5.85498H3.87473C4.08872 5.85498 4.26183 6.02832 4.26183 6.24207C4.26183 6.45582 4.08867 6.62917 3.87469 6.62917Z" fill="white"/>
<path d="M2.71343 2.75807C2.49945 2.75807 2.32446 2.58473 2.32446 2.37098C2.32446 2.15723 2.4957 1.98389 2.70968 1.98389H2.71348C2.92746 1.98389 3.10057 2.15723 3.10057 2.37098C3.10052 2.58478 2.92741 2.75807 2.71343 2.75807Z" fill="white"/>
<path d="M2.71343 5.85494C2.49945 5.85494 2.32446 5.68159 2.32446 5.46784C2.32446 5.25409 2.4957 5.08075 2.70968 5.08075H2.71348C2.92746 5.08075 3.10057 5.25409 3.10057 5.46784C3.10057 5.68159 2.92741 5.85494 2.71343 5.85494Z" fill="white"/>
<path d="M2.71343 4.30641C2.49945 4.30641 2.32446 4.13307 2.32446 3.91932C2.32446 3.70557 2.4957 3.53223 2.70968 3.53223H2.71348C2.92746 3.53223 3.10057 3.70557 3.10057 3.91932C3.10057 4.13307 2.92741 4.30641 2.71343 4.30641Z" fill="#F2F2F6"/>
<path d="M2.71343 7.40328C2.49945 7.40328 2.32446 7.22993 2.32446 7.01618C2.32446 6.80243 2.4957 6.62909 2.70968 6.62909H2.71348C2.92746 6.62909 3.10057 6.80243 3.10057 7.01618C3.10057 7.22993 2.92741 7.40328 2.71343 7.40328Z" fill="#F2F2F6"/>
<path d="M6.19738 1.98397C5.9834 1.98397 5.80841 1.81062 5.80841 1.59687C5.80841 1.38312 5.97965 1.20978 6.19363 1.20978H6.19743C6.41141 1.20978 6.58452 1.38312 6.58452 1.59687C6.58452 1.81062 6.41132 1.98397 6.19738 1.98397Z" fill="white"/>
<path d="M6.19738 5.08065C5.9834 5.08065 5.80841 4.9073 5.80841 4.69355C5.80841 4.4798 5.97965 4.30646 6.19363 4.30646H6.19743C6.41141 4.30646 6.58452 4.4798 6.58452 4.69355C6.58452 4.9073 6.41132 5.08065 6.19738 5.08065Z" fill="white"/>
<path d="M6.19738 8.17752C5.9834 8.17752 5.80841 8.00417 5.80841 7.79042C5.80841 7.57667 5.97965 7.40332 6.19363 7.40332H6.19743C6.41141 7.40332 6.58452 7.57667 6.58452 7.79042C6.58452 8.00417 6.41132 8.17752 6.19738 8.17752Z" fill="white"/>
<path d="M6.19738 3.53231C5.9834 3.53231 5.80841 3.35896 5.80841 3.14521C5.80841 2.93146 5.97965 2.75812 6.19363 2.75812H6.19743C6.41141 2.75812 6.58452 2.93146 6.58452 3.14521C6.58447 3.35896 6.41132 3.53231 6.19738 3.53231Z" fill="#F2F2F6"/>
<path d="M6.19738 6.62917C5.9834 6.62917 5.80841 6.45582 5.80841 6.24207C5.80841 6.02832 5.97965 5.85498 6.19363 5.85498H6.19743C6.41141 5.85498 6.58452 6.02832 6.58452 6.24207C6.58452 6.45582 6.41132 6.62917 6.19738 6.62917Z" fill="#F2F2F6"/>
<path d="M5.03606 2.75807C4.82208 2.75807 4.64709 2.58473 4.64709 2.37098C4.64709 2.15723 4.81833 1.98389 5.03231 1.98389H5.03611C5.25009 1.98389 5.4232 2.15723 5.4232 2.37098C5.4232 2.58478 5.25005 2.75807 5.03606 2.75807Z" fill="#F2F2F6"/>
<path d="M5.03606 5.85494C4.82208 5.85494 4.64709 5.68159 4.64709 5.46784C4.64709 5.25409 4.81833 5.08075 5.03231 5.08075H5.03611C5.25009 5.08075 5.4232 5.25409 5.4232 5.46784C5.4232 5.68159 5.25005 5.85494 5.03606 5.85494Z" fill="#F2F2F6"/>
<path d="M5.03606 4.30641C4.82208 4.30641 4.64709 4.13307 4.64709 3.91932C4.64709 3.70557 4.81833 3.53223 5.03231 3.53223H5.03611C5.25009 3.53223 5.4232 3.70557 5.4232 3.91932C5.4232 4.13307 5.25005 4.30641 5.03606 4.30641Z" fill="white"/>
<path d="M5.03606 7.40328C4.82208 7.40328 4.64709 7.22993 4.64709 7.01618C4.64709 6.80243 4.81833 6.62909 5.03231 6.62909H5.03611C5.25009 6.62909 5.4232 6.80243 5.4232 7.01618C5.4232 7.22993 5.25005 7.40328 5.03606 7.40328Z" fill="white"/>
<path d="M8.51611 1.98397C8.30212 1.98397 8.12714 1.81062 8.12714 1.59687C8.12714 1.38312 8.29837 1.20978 8.51236 1.20978H8.51615C8.73014 1.20978 8.90325 1.38312 8.90325 1.59687C8.90325 1.81062 8.73009 1.98397 8.51611 1.98397Z" fill="#F2F2F6"/>
<path d="M8.51611 5.08065C8.30212 5.08065 8.12714 4.9073 8.12714 4.69355C8.12714 4.4798 8.29837 4.30646 8.51236 4.30646H8.51615C8.73014 4.30646 8.90325 4.4798 8.90325 4.69355C8.90325 4.9073 8.73009 5.08065 8.51611 5.08065Z" fill="#F2F2F6"/>
<path d="M8.51611 8.17752C8.30212 8.17752 8.12714 8.00417 8.12714 7.79042C8.12714 7.57667 8.29837 7.40332 8.51236 7.40332H8.51615C8.73014 7.40332 8.90325 7.57667 8.90325 7.79042C8.90325 8.00417 8.73009 8.17752 8.51611 8.17752Z" fill="#F2F2F6"/>
<path d="M8.51611 3.53231C8.30212 3.53231 8.12714 3.35896 8.12714 3.14521C8.12714 2.93146 8.29837 2.75812 8.51236 2.75812H8.51615C8.73014 2.75812 8.90325 2.93146 8.90325 3.14521C8.9032 3.35896 8.73009 3.53231 8.51611 3.53231Z" fill="white"/>
<path d="M8.51611 6.62917C8.30212 6.62917 8.12714 6.45582 8.12714 6.24207C8.12714 6.02832 8.29837 5.85498 8.51236 5.85498H8.51615C8.73014 5.85498 8.90325 6.02832 8.90325 6.24207C8.90325 6.45582 8.73009 6.62917 8.51611 6.62917Z" fill="white"/>
<path d="M7.35485 2.75807C7.14087 2.75807 6.96588 2.58473 6.96588 2.37098C6.96588 2.15723 7.13712 1.98389 7.3511 1.98389H7.3549C7.56888 1.98389 7.74199 2.15723 7.74199 2.37098C7.74194 2.58478 7.56883 2.75807 7.35485 2.75807Z" fill="white"/>
<path d="M7.35485 5.85494C7.14087 5.85494 6.96588 5.68159 6.96588 5.46784C6.96588 5.25409 7.13712 5.08075 7.3511 5.08075H7.3549C7.56888 5.08075 7.74199 5.25409 7.74199 5.46784C7.74199 5.68159 7.56883 5.85494 7.35485 5.85494Z" fill="white"/>
<path d="M7.35485 4.30641C7.14087 4.30641 6.96588 4.13307 6.96588 3.91932C6.96588 3.70557 7.13712 3.53223 7.3511 3.53223H7.3549C7.56888 3.53223 7.74199 3.70557 7.74199 3.91932C7.74199 4.13307 7.56883 4.30641 7.35485 4.30641Z" fill="#F2F2F6"/>
<path d="M7.35485 7.40328C7.14087 7.40328 6.96588 7.22993 6.96588 7.01618C6.96588 6.80243 7.13712 6.62909 7.3511 6.62909H7.3549C7.56888 6.62909 7.74199 6.80243 7.74199 7.01618C7.74199 7.22993 7.56883 7.40328 7.35485 7.40328Z" fill="#F2F2F6"/>
<path d="M9.68121 2.75807C9.46722 2.75807 9.29224 2.58473 9.29224 2.37098C9.29224 2.15723 9.46347 1.98389 9.67746 1.98389H9.68125C9.89524 1.98389 10.0683 2.15723 10.0683 2.37098C10.0683 2.58478 9.89519 2.75807 9.68121 2.75807Z" fill="#F2F2F6"/>
<path d="M9.68121 5.85494C9.46722 5.85494 9.29224 5.68159 9.29224 5.46784C9.29224 5.25409 9.46347 5.08075 9.67746 5.08075H9.68125C9.89524 5.08075 10.0683 5.25409 10.0683 5.46784C10.0683 5.68159 9.89519 5.85494 9.68121 5.85494Z" fill="#F2F2F6"/>
<path d="M9.68121 4.30641C9.46722 4.30641 9.29224 4.13307 9.29224 3.91932C9.29224 3.70557 9.46347 3.53223 9.67746 3.53223H9.68125C9.89524 3.53223 10.0683 3.70557 10.0683 3.91932C10.0683 4.13307 9.89519 4.30641 9.68121 4.30641Z" fill="white"/>
<path d="M9.68121 7.40328C9.46722 7.40328 9.29224 7.22993 9.29224 7.01618C9.29224 6.80243 9.46347 6.62909 9.67746 6.62909H9.68125C9.89524 6.62909 10.0683 6.80243 10.0683 7.01618C10.0683 7.22993 9.89519 7.40328 9.68121 7.40328Z" fill="white"/>
<path d="M0.140625 12.8905L0.949687 13.5299H24V11.3179H0.774188L0.140625 12.8905Z" fill="#F2F2F6"/>
<path d="M0 11.3179V13.5298H0.949687C0.837141 13.257 0.774234 12.9585 0.774234 12.645V11.3178H0L0 11.3179Z" fill="#F2F2F6"/>
<path opacity="0.12" fill-rule="evenodd" clip-rule="evenodd" d="M2.32257 -0.129028H21.6774C22.9548 -0.129028 24 0.800004 24 2.11613V5.29033H23.9999V6.37415L20.0516 5.29028H20.245L2.32257 -0.129028Z" fill="black"/>
<path fill-rule="evenodd" clip-rule="evenodd" d="M2.32257 -0.129028H21.6774C22.9548 -0.129028 24 0.800004 24 2.11613V5.29033L24 10.7096H15.2516L8.70971 5.29033H8.70967L2.32257 -0.129028ZM21.7143 16.1288C21.702 16.129 21.6897 16.1291 21.6774 16.1291L21.6774 16.129H2.32258C1.04516 16.129 0 15.1226 0 13.8065L18.9597 13.837L15.2516 10.7097H24V13.8452H24C24 13.8495 24 13.8537 24 13.858V13.8839C24 14.0149 23.9896 14.1421 23.9697 14.2649C23.7915 15.4571 22.8481 16.1149 21.7143 16.1288Z" fill="black" fill-opacity="0.1"/>
</g>
<defs>
<clipPath id="clip0_602_1267">
<rect y="0.258057" width="24" height="15.4839" rx="2" fill="white"/>
</clipPath>
</defs>
</svg>
