<svg width="500" height="424" viewBox="0 0 500 424" fill="none" xmlns="http://www.w3.org/2000/svg">
<path d="M280.47 127.979C341.351 67.8808 416.968 21.8287 499.954 0C500.046 53.1441 499.954 106.334 500 159.524C426.639 188.491 362.028 238.181 314.134 300.674C261.727 299.891 209.319 300.674 156.958 300.075C193.616 359.068 218.852 424.922 231.747 493.079C180.491 493.264 129.189 493.08 77.9328 493.172C68.4461 406.87 7.8415 329.364 -73.947 300.029C-73.7167 245.918 -74.4074 191.761 -73.5785 137.65C-7.21745 149.117 56.6106 179.465 103.63 228.234C124.169 249.05 140.886 273.181 155.853 298.187C189.747 236.385 229.352 176.978 280.47 127.979Z" fill="#EBEFF3"/>
</svg>
