<svg width="64" height="64" viewBox="0 0 64 64" fill="none" xmlns="http://www.w3.org/2000/svg">
<circle cx="32" cy="32" r="28" fill="#0D2144"/>
<path fill-rule="evenodd" clip-rule="evenodd" d="M26.772 20H36.8292C40.536 20 42.6 22.136 42.6 25.796V38.192C42.6 41.912 40.536 44 36.8292 44H26.772C23.124 44 21 41.912 21 38.192V25.796C21 22.136 23.124 20 26.772 20ZM27.0961 25.592V25.58H30.6829C31.2001 25.58 31.6201 26 31.6201 26.5148C31.6201 27.044 31.2001 27.464 30.6829 27.464H27.0961C26.5789 27.464 26.1601 27.044 26.1601 26.528C26.1601 26.012 26.5789 25.592 27.0961 25.592ZM27.0961 32.888H36.5041C37.0201 32.888 37.4401 32.468 37.4401 31.952C37.4401 31.436 37.0201 31.0148 36.5041 31.0148H27.0961C26.5789 31.0148 26.1601 31.436 26.1601 31.952C26.1601 32.468 26.5789 32.888 27.0961 32.888ZM27.096 38.372H36.504C36.9828 38.324 37.344 37.9148 37.344 37.436C37.344 36.944 36.9828 36.536 36.504 36.488H27.096C26.736 36.452 26.388 36.62 26.196 36.932C26.004 37.232 26.004 37.628 26.196 37.94C26.388 38.24 26.736 38.42 27.096 38.372Z" fill="white"/>
</svg>
