<svg width="64" height="64" viewBox="0 0 64 64" fill="none" xmlns="http://www.w3.org/2000/svg">
<circle cx="32" cy="32" r="28" fill="#0D2144"/>
<path d="M35.5344 40.6889H34.7068V27.5598C34.7068 27.3361 34.6248 27.1419 34.4612 26.9778C34.2973 26.8141 34.1033 26.7322 33.8794 26.7322H28.9133C28.6891 26.7322 28.4952 26.8141 28.3313 26.9778C28.1674 27.1419 28.0854 27.3359 28.0854 27.5598V29.2151C28.0854 29.4393 28.1674 29.6332 28.3313 29.7971C28.495 29.9613 28.6889 30.0432 28.9133 30.0432H29.741V40.6888H28.9133C28.6891 40.6888 28.4952 40.7708 28.3313 40.9344C28.1674 41.0986 28.0854 41.2926 28.0854 41.5165V43.1717C28.0854 43.396 28.1674 43.5899 28.3313 43.7538C28.495 43.918 28.6889 43.9999 28.9133 43.9999H35.5344C35.7586 43.9999 35.9525 43.918 36.1164 43.7538C36.2801 43.5902 36.3623 43.3963 36.3623 43.1717V41.5165C36.3623 41.2928 36.2803 41.0986 36.1164 40.9344C35.9525 40.7705 35.7584 40.6889 35.5344 40.6889Z" fill="white"/>
<path d="M32.0537 25.5614C33.5894 25.5614 34.8344 24.3164 34.8344 22.7807C34.8344 21.245 33.5894 20 32.0537 20C30.5179 20 29.2729 21.245 29.2729 22.7807C29.2729 24.3164 30.5179 25.5614 32.0537 25.5614Z" fill="white"/>
</svg>
