<svg width="64" height="64" viewBox="0 0 64 64" fill="none" xmlns="http://www.w3.org/2000/svg">
<circle cx="32" cy="32" r="28" fill="#0D2144"/>
<path d="M41.9579 32.9572H39.7925C40.0132 33.5678 40.1338 34.2267 40.1338 34.9135V43.183C40.1338 43.4694 40.0845 43.7442 39.9947 43.9998H43.5746C44.9119 43.9998 45.9998 42.9005 45.9998 41.5493V37.0413C45.9998 34.7893 44.1866 32.9572 41.9579 32.9572Z" fill="white"/>
<path d="M23.8661 34.9137C23.8661 34.2268 23.9867 33.5679 24.2074 32.9573H22.042C19.8132 32.9573 18 34.7894 18 37.0415V41.5495C18 42.9007 19.0879 44 20.4252 44H24.0051C23.9154 43.7443 23.8661 43.4695 23.8661 43.1831V34.9137Z" fill="white"/>
<path d="M34.4753 30.8295H29.5249C27.2961 30.8295 25.4829 32.6616 25.4829 34.9136V43.1831C25.4829 43.6342 25.8448 44 26.2913 44H37.7089C38.1553 44 38.5173 43.6343 38.5173 43.1831V34.9136C38.5173 32.6616 36.704 30.8295 34.4753 30.8295Z" fill="white"/>
<path d="M32.0001 20C29.3198 20 27.1392 22.2034 27.1392 24.9118C27.1392 26.7489 28.1426 28.3533 29.6245 29.1957C30.3274 29.5952 31.1378 29.8235 32.0001 29.8235C32.8624 29.8235 33.6728 29.5952 34.3757 29.1957C35.8577 28.3533 36.8611 26.7488 36.8611 24.9118C36.8611 22.2034 34.6805 20 32.0001 20Z" fill="white"/>
<path d="M23.4645 24.5782C21.4599 24.5782 19.8291 26.2261 19.8291 28.2516C19.8291 30.2771 21.4599 31.9249 23.4645 31.9249C23.9729 31.9249 24.4571 31.8185 24.897 31.6272C25.6575 31.2963 26.2845 30.7107 26.6725 29.9771C26.9449 29.4623 27.0998 28.875 27.0998 28.2516C27.0998 26.2261 25.469 24.5782 23.4645 24.5782Z" fill="white"/>
<path d="M40.5357 24.5782C38.5312 24.5782 36.9004 26.2261 36.9004 28.2516C36.9004 28.875 37.0553 29.4624 37.3277 29.9771C37.7157 30.7108 38.3427 31.2964 39.1032 31.6272C39.5431 31.8185 40.0273 31.9249 40.5357 31.9249C42.5403 31.9249 44.1711 30.2771 44.1711 28.2516C44.1711 26.2261 42.5403 24.5782 40.5357 24.5782Z" fill="white"/>
</svg>
