<svg width="64" height="64" viewBox="0 0 64 64" fill="none" xmlns="http://www.w3.org/2000/svg">
<circle cx="32" cy="32" r="28" fill="#0D2144"/>
<path fill-rule="evenodd" clip-rule="evenodd" d="M37 18L27.6667 18C25.0893 18 23 20.0893 23 22.6667L23 41.3333C23 43.9107 25.0893 46 27.6667 46L37 46C39.5773 46 41.6667 43.9107 41.6667 41.3333L41.6667 22.6667C41.6667 20.0893 39.5773 18 37 18ZM26.1111 22.6667C26.1111 21.8076 26.8076 21.1111 27.6667 21.1111L37 21.1111C37.8591 21.1111 38.5556 21.8076 38.5556 22.6667L38.5556 41.3333C38.5556 42.1924 37.8591 42.8889 37 42.8889L27.6667 42.8889C26.8076 42.8889 26.1111 42.1924 26.1111 41.3333L26.1111 22.6667ZM30.7778 36.6667C29.9187 36.6667 29.2222 37.3631 29.2222 38.2222C29.2222 39.0813 29.9187 39.7778 30.7778 39.7778L33.8889 39.7778C34.748 39.7778 35.4444 39.0813 35.4444 38.2222C35.4444 37.3631 34.748 36.6667 33.8889 36.6667L30.7778 36.6667Z" fill="white"/>
</svg>
