<svg width="200" height="200" viewBox="0 0 200 200" fill="none" xmlns="http://www.w3.org/2000/svg">
<path d="M200 0H0V200H200V0Z" fill="white"/>
<path d="M22 17H17V22H22V17Z" fill="black"/>
<path d="M27 17H22V22H27V17Z" fill="black"/>
<path d="M32 17H27V22H32V17Z" fill="black"/>
<path d="M37 17H32V22H37V17Z" fill="black"/>
<path d="M42 17H37V22H42V17Z" fill="black"/>
<path d="M47 17H42V22H47V17Z" fill="black"/>
<path d="M52 17H47V22H52V17Z" fill="black"/>
<path d="M67 17H62V22H67V17Z" fill="black"/>
<path d="M97 17H92V22H97V17Z" fill="black"/>
<path d="M102 17H97V22H102V17Z" fill="black"/>
<path d="M112 17H107V22H112V17Z" fill="black"/>
<path d="M117 17H112V22H117V17Z" fill="black"/>
<path d="M122 17H117V22H122V17Z" fill="black"/>
<path d="M127 17H122V22H127V17Z" fill="black"/>
<path d="M132 17H127V22H132V17Z" fill="black"/>
<path d="M137 17H132V22H137V17Z" fill="black"/>
<path d="M152 17H147V22H152V17Z" fill="black"/>
<path d="M157 17H152V22H157V17Z" fill="black"/>
<path d="M162 17H157V22H162V17Z" fill="black"/>
<path d="M167 17H162V22H167V17Z" fill="black"/>
<path d="M172 17H167V22H172V17Z" fill="black"/>
<path d="M177 17H172V22H177V17Z" fill="black"/>
<path d="M182 17H177V22H182V17Z" fill="black"/>
<path d="M22 22H17V27H22V22Z" fill="black"/>
<path d="M52 22H47V27H52V22Z" fill="black"/>
<path d="M62 22H57V27H62V22Z" fill="black"/>
<path d="M67 22H62V27H67V22Z" fill="black"/>
<path d="M77 22H72V27H77V22Z" fill="black"/>
<path d="M82 22H77V27H82V22Z" fill="black"/>
<path d="M122 22H117V27H122V22Z" fill="black"/>
<path d="M127 22H122V27H127V22Z" fill="black"/>
<path d="M152 22H147V27H152V22Z" fill="black"/>
<path d="M182 22H177V27H182V22Z" fill="black"/>
<path d="M22 27H17V32H22V27Z" fill="black"/>
<path d="M32 27H27V32H32V27Z" fill="black"/>
<path d="M37 27H32V32H37V27Z" fill="black"/>
<path d="M42 27H37V32H42V27Z" fill="black"/>
<path d="M52 27H47V32H52V27Z" fill="black"/>
<path d="M67 27H62V32H67V27Z" fill="black"/>
<path d="M72 27H67V32H72V27Z" fill="black"/>
<path d="M77 27H72V32H77V27Z" fill="black"/>
<path d="M92 27H87V32H92V27Z" fill="black"/>
<path d="M102 27H97V32H102V27Z" fill="black"/>
<path d="M112 27H107V32H112V27Z" fill="black"/>
<path d="M127 27H122V32H127V27Z" fill="black"/>
<path d="M142 27H137V32H142V27Z" fill="black"/>
<path d="M152 27H147V32H152V27Z" fill="black"/>
<path d="M162 27H157V32H162V27Z" fill="black"/>
<path d="M167 27H162V32H167V27Z" fill="black"/>
<path d="M172 27H167V32H172V27Z" fill="black"/>
<path d="M182 27H177V32H182V27Z" fill="black"/>
<path d="M22 32H17V37H22V32Z" fill="black"/>
<path d="M32 32H27V37H32V32Z" fill="black"/>
<path d="M37 32H32V37H37V32Z" fill="black"/>
<path d="M42 32H37V37H42V32Z" fill="black"/>
<path d="M52 32H47V37H52V32Z" fill="black"/>
<path d="M62 32H57V37H62V32Z" fill="black"/>
<path d="M67 32H62V37H67V32Z" fill="black"/>
<path d="M77 32H72V37H77V32Z" fill="black"/>
<path d="M102 32H97V37H102V32Z" fill="black"/>
<path d="M107 32H102V37H107V32Z" fill="black"/>
<path d="M112 32H107V37H112V32Z" fill="black"/>
<path d="M117 32H112V37H117V32Z" fill="black"/>
<path d="M132 32H127V37H132V32Z" fill="black"/>
<path d="M142 32H137V37H142V32Z" fill="black"/>
<path d="M152 32H147V37H152V32Z" fill="black"/>
<path d="M162 32H157V37H162V32Z" fill="black"/>
<path d="M167 32H162V37H167V32Z" fill="black"/>
<path d="M172 32H167V37H172V32Z" fill="black"/>
<path d="M182 32H177V37H182V32Z" fill="black"/>
<path d="M22 37H17V42H22V37Z" fill="black"/>
<path d="M32 37H27V42H32V37Z" fill="black"/>
<path d="M37 37H32V42H37V37Z" fill="black"/>
<path d="M42 37H37V42H42V37Z" fill="black"/>
<path d="M52 37H47V42H52V37Z" fill="black"/>
<path d="M72 37H67V42H72V37Z" fill="black"/>
<path d="M82 37H77V42H82V37Z" fill="black"/>
<path d="M87 37H82V42H87V37Z" fill="black"/>
<path d="M92 37H87V42H92V37Z" fill="black"/>
<path d="M97 37H92V42H97V37Z" fill="black"/>
<path d="M117 37H112V42H117V37Z" fill="black"/>
<path d="M122 37H117V42H122V37Z" fill="black"/>
<path d="M127 37H122V42H127V37Z" fill="black"/>
<path d="M132 37H127V42H132V37Z" fill="black"/>
<path d="M137 37H132V42H137V37Z" fill="black"/>
<path d="M152 37H147V42H152V37Z" fill="black"/>
<path d="M162 37H157V42H162V37Z" fill="black"/>
<path d="M167 37H162V42H167V37Z" fill="black"/>
<path d="M172 37H167V42H172V37Z" fill="black"/>
<path d="M182 37H177V42H182V37Z" fill="black"/>
<path d="M22 42H17V47H22V42Z" fill="black"/>
<path d="M52 42H47V47H52V42Z" fill="black"/>
<path d="M62 42H57V47H62V42Z" fill="black"/>
<path d="M72 42H67V47H72V42Z" fill="black"/>
<path d="M87 42H82V47H87V42Z" fill="black"/>
<path d="M92 42H87V47H92V42Z" fill="black"/>
<path d="M97 42H92V47H97V42Z" fill="black"/>
<path d="M102 42H97V47H102V42Z" fill="black"/>
<path d="M112 42H107V47H112V42Z" fill="black"/>
<path d="M122 42H117V47H122V42Z" fill="black"/>
<path d="M127 42H122V47H127V42Z" fill="black"/>
<path d="M152 42H147V47H152V42Z" fill="black"/>
<path d="M182 42H177V47H182V42Z" fill="black"/>
<path d="M22 47H17V52H22V47Z" fill="black"/>
<path d="M27 47H22V52H27V47Z" fill="black"/>
<path d="M32 47H27V52H32V47Z" fill="black"/>
<path d="M37 47H32V52H37V47Z" fill="black"/>
<path d="M42 47H37V52H42V47Z" fill="black"/>
<path d="M47 47H42V52H47V47Z" fill="black"/>
<path d="M52 47H47V52H52V47Z" fill="black"/>
<path d="M62 47H57V52H62V47Z" fill="black"/>
<path d="M72 47H67V52H72V47Z" fill="black"/>
<path d="M82 47H77V52H82V47Z" fill="black"/>
<path d="M92 47H87V52H92V47Z" fill="black"/>
<path d="M102 47H97V52H102V47Z" fill="black"/>
<path d="M112 47H107V52H112V47Z" fill="black"/>
<path d="M122 47H117V52H122V47Z" fill="black"/>
<path d="M132 47H127V52H132V47Z" fill="black"/>
<path d="M142 47H137V52H142V47Z" fill="black"/>
<path d="M152 47H147V52H152V47Z" fill="black"/>
<path d="M157 47H152V52H157V47Z" fill="black"/>
<path d="M162 47H157V52H162V47Z" fill="black"/>
<path d="M167 47H162V52H167V47Z" fill="black"/>
<path d="M172 47H167V52H172V47Z" fill="black"/>
<path d="M177 47H172V52H177V47Z" fill="black"/>
<path d="M182 47H177V52H182V47Z" fill="black"/>
<path d="M82 52H77V57H82V52Z" fill="black"/>
<path d="M87 52H82V57H87V52Z" fill="black"/>
<path d="M97 52H92V57H97V52Z" fill="black"/>
<path d="M117 52H112V57H117V52Z" fill="black"/>
<path d="M122 52H117V57H122V52Z" fill="black"/>
<path d="M127 52H122V57H127V52Z" fill="black"/>
<path d="M137 52H132V57H137V52Z" fill="black"/>
<path d="M22 57H17V62H22V57Z" fill="black"/>
<path d="M27 57H22V62H27V57Z" fill="black"/>
<path d="M32 57H27V62H32V57Z" fill="black"/>
<path d="M37 57H32V62H37V57Z" fill="black"/>
<path d="M42 57H37V62H42V57Z" fill="black"/>
<path d="M52 57H47V62H52V57Z" fill="black"/>
<path d="M57 57H52V62H57V57Z" fill="black"/>
<path d="M62 57H57V62H62V57Z" fill="black"/>
<path d="M67 57H62V62H67V57Z" fill="black"/>
<path d="M72 57H67V62H72V57Z" fill="black"/>
<path d="M82 57H77V62H82V57Z" fill="black"/>
<path d="M92 57H87V62H92V57Z" fill="black"/>
<path d="M97 57H92V62H97V57Z" fill="black"/>
<path d="M107 57H102V62H107V57Z" fill="black"/>
<path d="M112 57H107V62H112V57Z" fill="black"/>
<path d="M117 57H112V62H117V57Z" fill="black"/>
<path d="M137 57H132V62H137V57Z" fill="black"/>
<path d="M142 57H137V62H142V57Z" fill="black"/>
<path d="M147 57H142V62H147V57Z" fill="black"/>
<path d="M157 57H152V62H157V57Z" fill="black"/>
<path d="M167 57H162V62H167V57Z" fill="black"/>
<path d="M177 57H172V62H177V57Z" fill="black"/>
<path d="M27 62H22V67H27V62Z" fill="black"/>
<path d="M32 62H27V67H32V62Z" fill="black"/>
<path d="M37 62H32V67H37V62Z" fill="black"/>
<path d="M42 62H37V67H42V62Z" fill="black"/>
<path d="M47 62H42V67H47V62Z" fill="black"/>
<path d="M57 62H52V67H57V62Z" fill="black"/>
<path d="M67 62H62V67H67V62Z" fill="black"/>
<path d="M97 62H92V67H97V62Z" fill="black"/>
<path d="M102 62H97V67H102V62Z" fill="black"/>
<path d="M117 62H112V67H117V62Z" fill="black"/>
<path d="M137 62H132V67H137V62Z" fill="black"/>
<path d="M142 62H137V67H142V62Z" fill="black"/>
<path d="M147 62H142V67H147V62Z" fill="black"/>
<path d="M152 62H147V67H152V62Z" fill="black"/>
<path d="M172 62H167V67H172V62Z" fill="black"/>
<path d="M177 62H172V67H177V62Z" fill="black"/>
<path d="M182 62H177V67H182V62Z" fill="black"/>
<path d="M27 67H22V72H27V67Z" fill="black"/>
<path d="M47 67H42V72H47V67Z" fill="black"/>
<path d="M52 67H47V72H52V67Z" fill="black"/>
<path d="M62 67H57V72H62V67Z" fill="black"/>
<path d="M67 67H62V72H67V67Z" fill="black"/>
<path d="M77 67H72V72H77V67Z" fill="black"/>
<path d="M82 67H77V72H82V67Z" fill="black"/>
<path d="M122 67H117V72H122V67Z" fill="black"/>
<path d="M132 67H127V72H132V67Z" fill="black"/>
<path d="M157 67H152V72H157V67Z" fill="black"/>
<path d="M167 67H162V72H167V67Z" fill="black"/>
<path d="M177 67H172V72H177V67Z" fill="black"/>
<path d="M22 72H17V77H22V72Z" fill="black"/>
<path d="M27 72H22V77H27V72Z" fill="black"/>
<path d="M32 72H27V77H32V72Z" fill="black"/>
<path d="M37 72H32V77H37V72Z" fill="black"/>
<path d="M47 72H42V77H47V72Z" fill="black"/>
<path d="M62 72H57V77H62V72Z" fill="black"/>
<path d="M67 72H62V77H67V72Z" fill="black"/>
<path d="M72 72H67V77H72V72Z" fill="black"/>
<path d="M77 72H72V77H77V72Z" fill="black"/>
<path d="M92 72H87V77H92V72Z" fill="black"/>
<path d="M102 72H97V77H102V72Z" fill="black"/>
<path d="M127 72H122V77H127V72Z" fill="black"/>
<path d="M132 72H127V77H132V72Z" fill="black"/>
<path d="M137 72H132V77H137V72Z" fill="black"/>
<path d="M142 72H137V77H142V72Z" fill="black"/>
<path d="M157 72H152V77H157V72Z" fill="black"/>
<path d="M172 72H167V77H172V72Z" fill="black"/>
<path d="M22 77H17V82H22V77Z" fill="black"/>
<path d="M37 77H32V82H37V77Z" fill="black"/>
<path d="M52 77H47V82H52V77Z" fill="black"/>
<path d="M57 77H52V82H57V77Z" fill="black"/>
<path d="M67 77H62V82H67V77Z" fill="black"/>
<path d="M77 77H72V82H77V77Z" fill="black"/>
<path d="M102 77H97V82H102V77Z" fill="black"/>
<path d="M107 77H102V82H107V77Z" fill="black"/>
<path d="M112 77H107V82H112V77Z" fill="black"/>
<path d="M122 77H117V82H122V77Z" fill="black"/>
<path d="M132 77H127V82H132V77Z" fill="black"/>
<path d="M147 77H142V82H147V77Z" fill="black"/>
<path d="M162 77H157V82H162V77Z" fill="black"/>
<path d="M167 77H162V82H167V77Z" fill="black"/>
<path d="M47 82H42V87H47V82Z" fill="black"/>
<path d="M57 82H52V87H57V82Z" fill="black"/>
<path d="M72 82H67V87H72V82Z" fill="black"/>
<path d="M82 82H77V87H82V82Z" fill="black"/>
<path d="M87 82H82V87H87V82Z" fill="black"/>
<path d="M92 82H87V87H92V82Z" fill="black"/>
<path d="M97 82H92V87H97V82Z" fill="black"/>
<path d="M117 82H112V87H117V82Z" fill="black"/>
<path d="M127 82H122V87H127V82Z" fill="black"/>
<path d="M132 82H127V87H132V82Z" fill="black"/>
<path d="M137 82H132V87H137V82Z" fill="black"/>
<path d="M152 82H147V87H152V82Z" fill="black"/>
<path d="M177 82H172V87H177V82Z" fill="black"/>
<path d="M182 82H177V87H182V82Z" fill="black"/>
<path d="M22 87H17V92H22V87Z" fill="black"/>
<path d="M37 87H32V92H37V87Z" fill="black"/>
<path d="M47 87H42V92H47V87Z" fill="black"/>
<path d="M52 87H47V92H52V87Z" fill="black"/>
<path d="M57 87H52V92H57V87Z" fill="black"/>
<path d="M72 87H67V92H72V87Z" fill="black"/>
<path d="M87 87H82V92H87V87Z" fill="black"/>
<path d="M92 87H87V92H92V87Z" fill="black"/>
<path d="M97 87H92V92H97V87Z" fill="black"/>
<path d="M102 87H97V92H102V87Z" fill="black"/>
<path d="M107 87H102V92H107V87Z" fill="black"/>
<path d="M147 87H142V92H147V87Z" fill="black"/>
<path d="M152 87H147V92H152V87Z" fill="black"/>
<path d="M177 87H172V92H177V87Z" fill="black"/>
<path d="M22 92H17V97H22V92Z" fill="black"/>
<path d="M27 92H22V97H27V92Z" fill="black"/>
<path d="M32 92H27V97H32V92Z" fill="black"/>
<path d="M37 92H32V97H37V92Z" fill="black"/>
<path d="M42 92H37V97H42V92Z" fill="black"/>
<path d="M67 92H62V97H67V92Z" fill="black"/>
<path d="M82 92H77V97H82V92Z" fill="black"/>
<path d="M87 92H82V97H87V92Z" fill="black"/>
<path d="M97 92H92V97H97V92Z" fill="black"/>
<path d="M117 92H112V97H117V92Z" fill="black"/>
<path d="M127 92H122V97H127V92Z" fill="black"/>
<path d="M132 92H127V97H132V92Z" fill="black"/>
<path d="M157 92H152V97H157V92Z" fill="black"/>
<path d="M172 92H167V97H172V92Z" fill="black"/>
<path d="M22 97H17V102H22V97Z" fill="black"/>
<path d="M42 97H37V102H42V97Z" fill="black"/>
<path d="M52 97H47V102H52V97Z" fill="black"/>
<path d="M57 97H52V102H57V97Z" fill="black"/>
<path d="M72 97H67V102H72V97Z" fill="black"/>
<path d="M82 97H77V102H82V97Z" fill="black"/>
<path d="M92 97H87V102H92V97Z" fill="black"/>
<path d="M97 97H92V102H97V97Z" fill="black"/>
<path d="M107 97H102V102H107V97Z" fill="black"/>
<path d="M112 97H107V102H112V97Z" fill="black"/>
<path d="M122 97H117V102H122V97Z" fill="black"/>
<path d="M132 97H127V102H132V97Z" fill="black"/>
<path d="M147 97H142V102H147V97Z" fill="black"/>
<path d="M157 97H152V102H157V97Z" fill="black"/>
<path d="M162 97H157V102H162V97Z" fill="black"/>
<path d="M177 97H172V102H177V97Z" fill="black"/>
<path d="M42 102H37V107H42V102Z" fill="black"/>
<path d="M62 102H57V107H62V102Z" fill="black"/>
<path d="M97 102H92V107H97V102Z" fill="black"/>
<path d="M102 102H97V107H102V102Z" fill="black"/>
<path d="M107 102H102V107H107V102Z" fill="black"/>
<path d="M117 102H112V107H117V102Z" fill="black"/>
<path d="M127 102H122V107H127V102Z" fill="black"/>
<path d="M137 102H132V107H137V102Z" fill="black"/>
<path d="M152 102H147V107H152V102Z" fill="black"/>
<path d="M167 102H162V107H167V102Z" fill="black"/>
<path d="M177 102H172V107H177V102Z" fill="black"/>
<path d="M182 102H177V107H182V102Z" fill="black"/>
<path d="M22 107H17V112H22V107Z" fill="black"/>
<path d="M27 107H22V112H27V107Z" fill="black"/>
<path d="M37 107H32V112H37V107Z" fill="black"/>
<path d="M47 107H42V112H47V107Z" fill="black"/>
<path d="M52 107H47V112H52V107Z" fill="black"/>
<path d="M57 107H52V112H57V107Z" fill="black"/>
<path d="M67 107H62V112H67V107Z" fill="black"/>
<path d="M72 107H67V112H72V107Z" fill="black"/>
<path d="M77 107H72V112H77V107Z" fill="black"/>
<path d="M82 107H77V112H82V107Z" fill="black"/>
<path d="M112 107H107V112H112V107Z" fill="black"/>
<path d="M127 107H122V112H127V107Z" fill="black"/>
<path d="M147 107H142V112H147V107Z" fill="black"/>
<path d="M157 107H152V112H157V107Z" fill="black"/>
<path d="M162 107H157V112H162V107Z" fill="black"/>
<path d="M167 107H162V112H167V107Z" fill="black"/>
<path d="M177 107H172V112H177V107Z" fill="black"/>
<path d="M22 112H17V117H22V112Z" fill="black"/>
<path d="M27 112H22V117H27V112Z" fill="black"/>
<path d="M37 112H32V117H37V112Z" fill="black"/>
<path d="M42 112H37V117H42V112Z" fill="black"/>
<path d="M57 112H52V117H57V112Z" fill="black"/>
<path d="M62 112H57V117H62V112Z" fill="black"/>
<path d="M77 112H72V117H77V112Z" fill="black"/>
<path d="M92 112H87V117H92V112Z" fill="black"/>
<path d="M102 112H97V117H102V112Z" fill="black"/>
<path d="M112 112H107V117H112V112Z" fill="black"/>
<path d="M127 112H122V117H127V112Z" fill="black"/>
<path d="M132 112H127V117H132V112Z" fill="black"/>
<path d="M137 112H132V117H137V112Z" fill="black"/>
<path d="M147 112H142V117H147V112Z" fill="black"/>
<path d="M162 112H157V117H162V112Z" fill="black"/>
<path d="M172 112H167V117H172V112Z" fill="black"/>
<path d="M52 117H47V122H52V117Z" fill="black"/>
<path d="M77 117H72V122H77V117Z" fill="black"/>
<path d="M107 117H102V122H107V117Z" fill="black"/>
<path d="M112 117H107V122H112V117Z" fill="black"/>
<path d="M122 117H117V122H122V117Z" fill="black"/>
<path d="M132 117H127V122H132V117Z" fill="black"/>
<path d="M137 117H132V122H137V117Z" fill="black"/>
<path d="M142 117H137V122H142V117Z" fill="black"/>
<path d="M157 117H152V122H157V117Z" fill="black"/>
<path d="M162 117H157V122H162V117Z" fill="black"/>
<path d="M177 117H172V122H177V117Z" fill="black"/>
<path d="M22 122H17V127H22V122Z" fill="black"/>
<path d="M27 122H22V127H27V122Z" fill="black"/>
<path d="M67 122H62V127H67V122Z" fill="black"/>
<path d="M72 122H67V127H72V122Z" fill="black"/>
<path d="M82 122H77V127H82V122Z" fill="black"/>
<path d="M87 122H82V127H87V122Z" fill="black"/>
<path d="M92 122H87V127H92V122Z" fill="black"/>
<path d="M97 122H92V127H97V122Z" fill="black"/>
<path d="M117 122H112V127H117V122Z" fill="black"/>
<path d="M132 122H127V127H132V122Z" fill="black"/>
<path d="M137 122H132V127H137V122Z" fill="black"/>
<path d="M142 122H137V127H142V122Z" fill="black"/>
<path d="M152 122H147V127H152V122Z" fill="black"/>
<path d="M157 122H152V127H157V122Z" fill="black"/>
<path d="M167 122H162V127H167V122Z" fill="black"/>
<path d="M177 122H172V127H177V122Z" fill="black"/>
<path d="M182 122H177V127H182V122Z" fill="black"/>
<path d="M22 127H17V132H22V127Z" fill="black"/>
<path d="M37 127H32V132H37V127Z" fill="black"/>
<path d="M42 127H37V132H42V127Z" fill="black"/>
<path d="M52 127H47V132H52V127Z" fill="black"/>
<path d="M57 127H52V132H57V127Z" fill="black"/>
<path d="M62 127H57V132H62V127Z" fill="black"/>
<path d="M67 127H62V132H67V127Z" fill="black"/>
<path d="M72 127H67V132H72V127Z" fill="black"/>
<path d="M87 127H82V132H87V127Z" fill="black"/>
<path d="M92 127H87V132H92V127Z" fill="black"/>
<path d="M97 127H92V132H97V127Z" fill="black"/>
<path d="M127 127H122V132H127V127Z" fill="black"/>
<path d="M147 127H142V132H147V127Z" fill="black"/>
<path d="M152 127H147V132H152V127Z" fill="black"/>
<path d="M162 127H157V132H162V127Z" fill="black"/>
<path d="M167 127H162V132H167V127Z" fill="black"/>
<path d="M177 127H172V132H177V127Z" fill="black"/>
<path d="M22 132H17V137H22V132Z" fill="black"/>
<path d="M32 132H27V137H32V132Z" fill="black"/>
<path d="M37 132H32V137H37V132Z" fill="black"/>
<path d="M47 132H42V137H47V132Z" fill="black"/>
<path d="M57 132H52V137H57V132Z" fill="black"/>
<path d="M62 132H57V137H62V132Z" fill="black"/>
<path d="M82 132H77V137H82V132Z" fill="black"/>
<path d="M87 132H82V137H87V132Z" fill="black"/>
<path d="M112 132H107V137H112V132Z" fill="black"/>
<path d="M117 132H112V137H117V132Z" fill="black"/>
<path d="M127 132H122V137H127V132Z" fill="black"/>
<path d="M132 132H127V137H132V132Z" fill="black"/>
<path d="M152 132H147V137H152V132Z" fill="black"/>
<path d="M157 132H152V137H157V132Z" fill="black"/>
<path d="M167 132H162V137H167V132Z" fill="black"/>
<path d="M172 132H167V137H172V132Z" fill="black"/>
<path d="M22 137H17V142H22V137Z" fill="black"/>
<path d="M42 137H37V142H42V137Z" fill="black"/>
<path d="M52 137H47V142H52V137Z" fill="black"/>
<path d="M57 137H52V142H57V137Z" fill="black"/>
<path d="M72 137H67V142H72V137Z" fill="black"/>
<path d="M82 137H77V142H82V137Z" fill="black"/>
<path d="M92 137H87V142H92V137Z" fill="black"/>
<path d="M97 137H92V142H97V137Z" fill="black"/>
<path d="M102 137H97V142H102V137Z" fill="black"/>
<path d="M107 137H102V142H107V137Z" fill="black"/>
<path d="M112 137H107V142H112V137Z" fill="black"/>
<path d="M122 137H117V142H122V137Z" fill="black"/>
<path d="M132 137H127V142H132V137Z" fill="black"/>
<path d="M137 137H132V142H137V137Z" fill="black"/>
<path d="M142 137H137V142H142V137Z" fill="black"/>
<path d="M147 137H142V142H147V137Z" fill="black"/>
<path d="M152 137H147V142H152V137Z" fill="black"/>
<path d="M157 137H152V142H157V137Z" fill="black"/>
<path d="M162 137H157V142H162V137Z" fill="black"/>
<path d="M182 137H177V142H182V137Z" fill="black"/>
<path d="M62 142H57V147H62V142Z" fill="black"/>
<path d="M117 142H112V147H117V142Z" fill="black"/>
<path d="M142 142H137V147H142V142Z" fill="black"/>
<path d="M162 142H157V147H162V142Z" fill="black"/>
<path d="M172 142H167V147H172V142Z" fill="black"/>
<path d="M182 142H177V147H182V142Z" fill="black"/>
<path d="M22 147H17V152H22V147Z" fill="black"/>
<path d="M27 147H22V152H27V147Z" fill="black"/>
<path d="M32 147H27V152H32V147Z" fill="black"/>
<path d="M37 147H32V152H37V147Z" fill="black"/>
<path d="M42 147H37V152H42V147Z" fill="black"/>
<path d="M47 147H42V152H47V147Z" fill="black"/>
<path d="M52 147H47V152H52V147Z" fill="black"/>
<path d="M62 147H57V152H62V147Z" fill="black"/>
<path d="M72 147H67V152H72V147Z" fill="black"/>
<path d="M77 147H72V152H77V147Z" fill="black"/>
<path d="M82 147H77V152H82V147Z" fill="black"/>
<path d="M97 147H92V152H97V147Z" fill="black"/>
<path d="M102 147H97V152H102V147Z" fill="black"/>
<path d="M122 147H117V152H122V147Z" fill="black"/>
<path d="M127 147H122V152H127V147Z" fill="black"/>
<path d="M132 147H127V152H132V147Z" fill="black"/>
<path d="M137 147H132V152H137V147Z" fill="black"/>
<path d="M142 147H137V152H142V147Z" fill="black"/>
<path d="M152 147H147V152H152V147Z" fill="black"/>
<path d="M162 147H157V152H162V147Z" fill="black"/>
<path d="M167 147H162V152H167V147Z" fill="black"/>
<path d="M172 147H167V152H172V147Z" fill="black"/>
<path d="M177 147H172V152H177V147Z" fill="black"/>
<path d="M22 152H17V157H22V152Z" fill="black"/>
<path d="M52 152H47V157H52V152Z" fill="black"/>
<path d="M77 152H72V157H77V152Z" fill="black"/>
<path d="M92 152H87V157H92V152Z" fill="black"/>
<path d="M122 152H117V157H122V152Z" fill="black"/>
<path d="M127 152H122V157H127V152Z" fill="black"/>
<path d="M137 152H132V157H137V152Z" fill="black"/>
<path d="M142 152H137V157H142V152Z" fill="black"/>
<path d="M162 152H157V157H162V152Z" fill="black"/>
<path d="M167 152H162V157H167V152Z" fill="black"/>
<path d="M172 152H167V157H172V152Z" fill="black"/>
<path d="M182 152H177V157H182V152Z" fill="black"/>
<path d="M22 157H17V162H22V157Z" fill="black"/>
<path d="M32 157H27V162H32V157Z" fill="black"/>
<path d="M37 157H32V162H37V157Z" fill="black"/>
<path d="M42 157H37V162H42V157Z" fill="black"/>
<path d="M52 157H47V162H52V157Z" fill="black"/>
<path d="M62 157H57V162H62V157Z" fill="black"/>
<path d="M77 157H72V162H77V157Z" fill="black"/>
<path d="M97 157H92V162H97V157Z" fill="black"/>
<path d="M102 157H97V162H102V157Z" fill="black"/>
<path d="M107 157H102V162H107V157Z" fill="black"/>
<path d="M112 157H107V162H112V157Z" fill="black"/>
<path d="M117 157H112V162H117V157Z" fill="black"/>
<path d="M132 157H127V162H132V157Z" fill="black"/>
<path d="M142 157H137V162H142V157Z" fill="black"/>
<path d="M147 157H142V162H147V157Z" fill="black"/>
<path d="M152 157H147V162H152V157Z" fill="black"/>
<path d="M157 157H152V162H157V157Z" fill="black"/>
<path d="M162 157H157V162H162V157Z" fill="black"/>
<path d="M167 157H162V162H167V157Z" fill="black"/>
<path d="M177 157H172V162H177V157Z" fill="black"/>
<path d="M22 162H17V167H22V162Z" fill="black"/>
<path d="M32 162H27V167H32V162Z" fill="black"/>
<path d="M37 162H32V167H37V162Z" fill="black"/>
<path d="M42 162H37V167H42V162Z" fill="black"/>
<path d="M52 162H47V167H52V162Z" fill="black"/>
<path d="M62 162H57V167H62V162Z" fill="black"/>
<path d="M67 162H62V167H67V162Z" fill="black"/>
<path d="M82 162H77V167H82V162Z" fill="black"/>
<path d="M87 162H82V167H87V162Z" fill="black"/>
<path d="M92 162H87V167H92V162Z" fill="black"/>
<path d="M117 162H112V167H117V162Z" fill="black"/>
<path d="M137 162H132V167H137V162Z" fill="black"/>
<path d="M147 162H142V167H147V162Z" fill="black"/>
<path d="M162 162H157V167H162V162Z" fill="black"/>
<path d="M172 162H167V167H172V162Z" fill="black"/>
<path d="M177 162H172V167H177V162Z" fill="black"/>
<path d="M182 162H177V167H182V162Z" fill="black"/>
<path d="M22 167H17V172H22V167Z" fill="black"/>
<path d="M32 167H27V172H32V167Z" fill="black"/>
<path d="M37 167H32V172H37V167Z" fill="black"/>
<path d="M42 167H37V172H42V167Z" fill="black"/>
<path d="M52 167H47V172H52V167Z" fill="black"/>
<path d="M62 167H57V172H62V167Z" fill="black"/>
<path d="M67 167H62V172H67V167Z" fill="black"/>
<path d="M87 167H82V172H87V167Z" fill="black"/>
<path d="M92 167H87V172H92V167Z" fill="black"/>
<path d="M97 167H92V172H97V167Z" fill="black"/>
<path d="M132 167H127V172H132V167Z" fill="black"/>
<path d="M137 167H132V172H137V167Z" fill="black"/>
<path d="M152 167H147V172H152V167Z" fill="black"/>
<path d="M172 167H167V172H172V167Z" fill="black"/>
<path d="M22 172H17V177H22V172Z" fill="black"/>
<path d="M52 172H47V177H52V172Z" fill="black"/>
<path d="M62 172H57V177H62V172Z" fill="black"/>
<path d="M67 172H62V177H67V172Z" fill="black"/>
<path d="M82 172H77V177H82V172Z" fill="black"/>
<path d="M87 172H82V177H87V172Z" fill="black"/>
<path d="M97 172H92V177H97V172Z" fill="black"/>
<path d="M102 172H97V177H102V172Z" fill="black"/>
<path d="M117 172H112V177H117V172Z" fill="black"/>
<path d="M122 172H117V177H122V172Z" fill="black"/>
<path d="M127 172H122V177H127V172Z" fill="black"/>
<path d="M132 172H127V177H132V172Z" fill="black"/>
<path d="M157 172H152V177H157V172Z" fill="black"/>
<path d="M167 172H162V177H167V172Z" fill="black"/>
<path d="M172 172H167V177H172V172Z" fill="black"/>
<path d="M22 177H17V182H22V177Z" fill="black"/>
<path d="M27 177H22V182H27V177Z" fill="black"/>
<path d="M32 177H27V182H32V177Z" fill="black"/>
<path d="M37 177H32V182H37V177Z" fill="black"/>
<path d="M42 177H37V182H42V177Z" fill="black"/>
<path d="M47 177H42V182H47V177Z" fill="black"/>
<path d="M52 177H47V182H52V177Z" fill="black"/>
<path d="M62 177H57V182H62V177Z" fill="black"/>
<path d="M82 177H77V182H82V177Z" fill="black"/>
<path d="M92 177H87V182H92V177Z" fill="black"/>
<path d="M97 177H92V182H97V177Z" fill="black"/>
<path d="M102 177H97V182H102V177Z" fill="black"/>
<path d="M107 177H102V182H107V177Z" fill="black"/>
<path d="M112 177H107V182H112V177Z" fill="black"/>
<path d="M122 177H117V182H122V177Z" fill="black"/>
<path d="M132 177H127V182H132V177Z" fill="black"/>
<path d="M137 177H132V182H137V177Z" fill="black"/>
<path d="M142 177H137V182H142V177Z" fill="black"/>
<path d="M147 177H142V182H147V177Z" fill="black"/>
<path d="M152 177H147V182H152V177Z" fill="black"/>
<path d="M157 177H152V182H157V177Z" fill="black"/>
<path d="M167 177H162V182H167V177Z" fill="black"/>
<path d="M177 177H172V182H177V177Z" fill="black"/>
</svg>
