<svg width="737" height="546" viewBox="0 0 737 546" fill="none" xmlns="http://www.w3.org/2000/svg">
<path d="M491.564 177.476C575.991 94.1343 680.855 30.2711 795.936 0C796.064 73.6981 795.936 147.46 796 221.222C694.266 261.392 604.666 330.3 538.248 416.962C465.572 415.877 392.896 416.963 320.283 416.132C371.118 497.941 406.115 589.265 423.997 683.783C352.917 684.038 281.774 683.783 210.694 683.911C197.538 564.231 113.494 456.749 0.0735263 416.069C0.392842 341.029 -0.564996 265.926 0.584541 190.887C92.6113 206.789 181.126 248.875 246.33 316.506C274.813 345.372 297.995 378.836 318.751 413.514C365.754 327.81 420.676 245.426 491.564 177.476Z" fill="white" fill-opacity="0.1"/>
</svg>
