<svg width="212" height="40" viewBox="0 0 212 40" fill="none" xmlns="http://www.w3.org/2000/svg">
<path d="M36.6184 0.53443V10.6479C32.6264 12.2188 29.0587 14.6976 26.2004 17.8861C25.6835 18.4653 25.1991 19.0394 24.7471 19.6082L14.7026 19.5894C14.869 19.8644 15.0353 20.1395 15.1954 20.4145C17.2806 23.9611 18.7324 27.8408 19.4863 31.8812H9.67723C9.35894 29.0279 8.21993 26.3268 6.39708 24.1024C4.70557 22.0586 2.49738 20.5008 0 19.5894L0 9.30091C3.52238 9.85996 6.84037 11.3142 9.63329 13.5232C12.0628 15.4703 13.469 17.5486 14.6963 19.58C16.3223 16.4016 19.4298 11.2136 24.6372 6.85067C28.1095 3.88431 32.2026 1.7265 36.6184 0.53443ZM14.2883 11.0698C15.3879 11.0698 16.4628 10.7451 17.377 10.1368C18.2913 9.52849 19.0038 8.66387 19.4244 7.65232C19.8451 6.64076 19.955 5.52771 19.7402 4.45396C19.5255 3.38021 18.9957 2.39398 18.218 1.62004C17.4402 0.846089 16.4494 0.319186 15.3709 0.105974C14.2923 -0.107239 13.1745 0.00281648 12.1588 0.42222C11.1431 0.841624 10.2751 1.55153 9.66462 2.46216C9.05417 3.37278 8.72866 4.44321 8.72929 5.53804C8.72887 6.26487 8.8724 6.98464 9.15166 7.65618C9.43092 8.32771 9.84042 8.93783 10.3567 9.45163C10.8731 9.96543 11.4861 10.3728 12.1607 10.6505C12.8353 10.9282 13.5583 11.0707 14.2883 11.0698Z" fill="#0083FF"/>
<path d="M36.744 24.2165L30.3186 38.7599H25.76L28.506 32.5099H24.5787L21 24.2165H25.8607L29.0172 32.1955H29.056L32.1893 24.2165H36.744ZM51.6553 31.4882C51.6553 36.1851 48.8473 38.9732 44.1067 38.9732C39.3661 38.9732 36.5194 36.2 36.5194 31.4882C36.5194 26.7764 39.3467 24.0032 44.1067 24.0032C48.8667 24.0032 51.6553 26.7913 51.6553 31.4882ZM47.2594 31.4882C47.2594 28.7973 46.0781 27.203 44.1067 27.203C42.1353 27.203 40.923 28.7973 40.923 31.4882C40.923 34.1791 42.1043 35.7734 44.1183 35.7734C46.1323 35.7734 47.2594 34.1828 47.2594 31.4882ZM60.3387 29.6619C58.7507 29.4448 57.4494 29.2876 57.4494 28.3819C57.4494 27.6334 58.1001 27.203 59.2194 27.203C60.5401 27.203 61.3728 27.9515 61.4967 29.2277H65.6874C65.2807 25.9643 62.9762 24.0181 59.4634 24.0181C55.4973 24.0181 53.1348 25.6312 53.1348 28.7562C53.1348 32.2741 56.2681 32.6671 58.7507 32.9815C60.42 33.1798 61.8027 33.3557 61.8027 34.3961C61.8027 35.2607 60.9661 35.7734 59.5641 35.7734C58.9046 35.8087 58.257 35.5937 57.7592 35.1742C57.2614 34.7547 56.9529 34.164 56.8994 33.5279H52.7087C53.0961 36.9672 55.6174 38.9732 59.4634 38.9732C63.654 38.9732 66.1134 37.102 66.1134 33.9208C66.0979 30.4478 62.86 29.9949 60.3387 29.6619ZM77.1361 29.8565H72.2948V24.2165H68.0345V38.7599H72.2948V32.9628H77.1361V38.7599H81.3965V24.2165H77.1361V29.8565ZM96.3078 29.6619C94.7237 29.4448 93.4185 29.2876 93.4185 28.3819C93.4185 27.6334 94.073 27.203 95.1885 27.203C96.5131 27.203 97.3458 27.9515 97.4697 29.2277H101.653C101.246 25.9643 98.9415 24.0181 95.4247 24.0181C91.4587 24.0181 89.1 25.6312 89.1 28.7562C89.1 32.2741 92.2333 32.6671 94.716 32.9815C96.3814 33.1798 97.7641 33.3557 97.7641 34.3961C97.7641 35.2607 96.9314 35.7734 95.5293 35.7734C94.8696 35.8096 94.2214 35.595 93.7234 35.1753C93.2255 34.7557 92.9172 34.1643 92.8646 33.5279H88.674C89.0613 36.9672 91.5827 38.9732 95.4247 38.9732C99.6154 38.9732 102.079 37.102 102.079 33.9208C102.079 30.4478 98.8253 29.9949 96.3078 29.6619ZM113.996 24.2165L117.997 38.7599H113.527L112.753 35.5376H107.466L106.691 38.7599H102.505L106.509 24.2165H113.996ZM112.025 32.45L110.131 24.5496H110.092L108.198 32.45H112.025ZM124.918 32.2143H124.879L121.727 24.2165H116.862L120.445 32.5099H124.368L121.622 38.7599H126.181L132.606 24.2165H128.067L124.918 32.2143ZM137.955 24.2165H133.694V38.7599H144.113V35.5376H137.955V24.2165ZM159.644 31.4882C159.644 36.1851 156.836 38.9732 152.095 38.9732C147.355 38.9732 144.508 36.2 144.508 31.4882C144.508 26.7764 147.335 24.0032 152.095 24.0032C156.855 24.0032 159.659 26.7913 159.659 31.4882H159.644ZM155.248 31.4882C155.248 28.7973 154.086 27.203 152.095 27.203C150.105 27.203 148.904 28.7973 148.904 31.4882C148.904 34.1791 150.066 35.7734 152.095 35.7734C154.125 35.7734 155.264 34.1828 155.264 31.4882H155.248ZM167.642 38.4455H167.603L164.613 24.224H160.144L163.746 38.7674H171.232L174.853 24.2165H170.64L167.642 38.4455ZM182.878 27.218C184.486 27.218 185.59 28.3183 185.849 30.1484H189.896C189.509 26.316 186.906 24.0331 182.878 24.0331C178.138 24.0331 175.33 26.8063 175.33 31.5181C175.33 36.23 178.138 39.0032 182.878 39.0032C186.906 39.0032 189.509 36.724 189.896 32.9104H185.857C185.613 34.7367 184.552 35.8183 182.886 35.8183C180.911 35.8183 179.734 34.2277 179.734 31.5331C179.734 28.8385 180.911 27.2105 182.886 27.2105L182.878 27.218ZM200.795 29.8714H195.942V24.2165H191.682V38.7599H195.942V32.9628H200.803V38.7599H205.063V24.2165H200.803L200.795 29.8714ZM207.74 24.2165V38.7599H212V24.2165H207.74Z" fill="white"/>
</svg>
