<svg width="34" height="30" viewBox="0 0 34 30" fill="none" xmlns="http://www.w3.org/2000/svg">
<path d="M20.9965 7.97442C24.6026 4.41461 29.0817 1.68679 33.9973 0.393799C34.0027 3.54171 33.9973 6.69234 34 9.84298C29.6546 11.5588 25.8274 14.5021 22.9905 18.2038C19.8862 18.1574 16.782 18.2038 13.6804 18.1683C15.8518 21.6626 17.3466 25.5634 18.1104 29.6006C15.0744 29.6115 12.0356 29.6006 8.9995 29.6061C8.43757 24.4941 4.84775 19.9032 0.00314057 18.1656C0.0167797 14.9604 -0.024133 11.7525 0.0249678 8.54726C3.95576 9.22649 7.73652 11.0241 10.5216 13.9129C11.7382 15.1459 12.7284 16.5752 13.615 18.0565C15.6227 14.3957 17.9686 10.8768 20.9965 7.97442Z" fill="#319C68"/>
</svg>
