<svg width="510" height="353" viewBox="0 0 510 353" fill="none" xmlns="http://www.w3.org/2000/svg">
<path d="M314.363 113.499C368.356 60.2004 435.417 19.3589 509.014 0C509.096 47.1311 509.014 94.303 509.055 141.475C443.994 167.164 386.694 211.232 344.218 266.654C297.741 265.96 251.263 266.654 204.826 266.123C237.336 318.441 259.717 376.845 271.153 437.29C225.696 437.453 180.199 437.29 134.742 437.372C126.329 360.835 72.5815 292.099 0.0470212 266.082C0.251229 218.094 -0.361324 170.064 0.373823 122.075C59.2264 132.245 115.833 159.159 157.532 202.411C175.747 220.871 190.573 242.272 203.846 264.449C233.905 209.64 269.029 156.954 314.363 113.499Z" fill="#0D2144"/>
</svg>
