<svg width="606" height="521" viewBox="0 0 606 521" fill="none" xmlns="http://www.w3.org/2000/svg">
<path d="M374.231 135.113C438.506 71.6651 518.388 23.0456 606 0C606.097 56.1068 605.951 112.262 606 168.418C528.549 198.999 460.336 251.46 409.772 317.436C354.443 316.61 299.114 317.436 243.834 316.804C282.535 379.086 309.178 448.611 322.792 520.568C268.678 520.763 214.516 520.568 160.403 520.666C150.387 429.553 86.4041 347.726 0.0559761 316.756C0.299073 259.628 -0.430135 202.451 0.445015 145.323C70.5056 157.43 137.892 189.47 187.533 240.958C209.217 262.934 226.866 288.411 242.667 314.811C278.451 249.564 320.264 186.845 374.231 135.113Z" fill="#EBEFF3"/>
</svg>
