<svg width="90" height="90" viewBox="0 0 90 90" fill="none" xmlns="http://www.w3.org/2000/svg">
<path d="M78.7499 73.1248H11.2499C5.04546 73.1248 0 78.1702 0 84.3748V89.9999H89.9998V84.3748C89.9998 78.1702 84.9544 73.1248 78.7499 73.1248Z" fill="#0D2144"/>
<path d="M45 0L0 28.125V39.375H11.2499V67.5H28.1249V39.375H36.5624V67.5H53.4373V39.375H61.8748V67.5H78.7497V39.375H89.9997V28.125L45 0ZM45 16.875C48.1067 16.875 50.625 19.3933 50.625 22.5C50.625 25.6064 48.1067 28.125 45 28.125C41.8933 28.125 39.375 25.6064 39.375 22.5C39.375 19.3933 41.8931 16.875 45 16.875Z" fill="#0D2144"/>
</svg>
