<svg width="90" height="90" viewBox="0 0 90 90" fill="none" xmlns="http://www.w3.org/2000/svg">
<path d="M73.9074 67.5679L59.605 63.9915L58.3879 59.1231C62.2146 55.3339 64.8354 50.1295 65.6119 44.7908C67.7323 44.1935 69.3751 42.3753 69.6587 40.0943L70.592 32.6276C70.7899 31.0521 70.3045 29.458 69.2592 28.2633C68.6469 27.5614 67.8741 27.0313 67.0192 26.7065L67.3627 19.6766L68.7591 18.2766C70.861 16.0402 72.6043 12.2062 68.9607 6.64345C66.1607 2.36908 61.4045 0.199951 54.8189 0.199951C52.2205 0.199951 46.2397 0.199951 40.6696 3.94075C24.7655 4.27308 22.6002 11.6612 22.6002 18.8667C22.6002 20.543 23.0071 24.3174 23.2759 26.5947C22.3163 26.8971 21.4466 27.4571 20.7671 28.2299C19.7031 29.4358 19.2103 31.0374 19.4082 32.6315L20.3415 40.0982C20.6475 42.5323 22.4955 44.4475 24.8327 44.903C25.6055 50.0363 28.0919 55.0726 31.6983 58.7985L30.3991 63.999L16.0967 67.5755C6.73347 69.9087 0.200195 78.2788 0.200195 87.9332C0.200195 88.9636 1.03652 89.7999 2.06692 89.7999H87.9336C88.964 89.7999 89.8004 88.9563 89.8004 87.9259C89.8002 78.2788 83.2669 69.9087 73.9074 67.5679Z" fill="#0D2144"/>
</svg>
