<svg width="90" height="90" viewBox="0 0 90 90" fill="none" xmlns="http://www.w3.org/2000/svg">
<path d="M73.9071 67.568L59.6047 63.9915L58.7796 60.6875C68.6468 59.0262 73.7241 56.0694 73.9481 55.9387C74.4782 55.6288 74.8068 55.0651 74.8516 54.4528C74.8927 53.8404 74.6201 53.2395 74.1385 52.8548C74.0715 52.8027 67.3999 47.2923 67.3999 28.2C67.3999 12.098 63.6331 3.93323 56.1999 3.93323H55.0987C52.418 1.34235 50.4059 0.199951 44.9999 0.199951C37.9851 0.199951 22.5999 7.25228 22.5999 28.2C22.5999 47.2923 15.9284 52.8027 15.8799 52.84C15.3835 53.2132 15.1035 53.8068 15.1332 54.4267C15.1668 55.0502 15.5028 55.6102 16.0367 55.9312C16.2607 56.0656 21.2895 59.0372 31.2164 60.6948L30.3913 63.9913L16.0891 67.568C6.73322 69.9088 0.199951 78.2788 0.199951 87.9332C0.199951 88.9636 1.03628 89.8 2.06668 89.8H87.9334C88.9638 89.8 89.8001 88.9563 89.8001 87.9259C89.7999 78.2788 83.2667 69.9088 73.9071 67.568Z" fill="#0D2144"/>
</svg>
