<svg width="140" height="140" viewBox="0 0 140 140" fill="none" xmlns="http://www.w3.org/2000/svg">
<path d="M103.858 73.2202H96.4951C97.2456 75.2748 97.6556 77.4921 97.6556 79.8032V107.629C97.6556 108.592 97.4878 109.517 97.1827 110.377H109.354C113.901 110.377 117.6 106.678 117.6 102.132V86.9627C117.6 79.3852 111.435 73.2202 103.858 73.2202Z" fill="#0D2144"/>
<path d="M42.3445 79.8036C42.3445 77.4924 42.7545 75.2753 43.505 73.2207H36.1426C28.5649 73.2207 22.3999 79.3857 22.3999 86.9634V102.132C22.3999 106.679 26.0988 110.378 30.6455 110.378H42.8174C42.5122 109.517 42.3445 108.593 42.3445 107.629V79.8036Z" fill="#0D2144"/>
<path d="M78.4159 66.061H61.5845C54.0068 66.061 47.8418 72.226 47.8418 79.8037V107.629C47.8418 109.147 49.0723 110.378 50.5903 110.378H89.4101C90.9281 110.378 92.1586 109.147 92.1586 107.629V79.8037C92.1586 72.226 85.9936 66.061 78.4159 66.061Z" fill="#0D2144"/>
<path d="M40.9789 45.0267C34.1633 45.0267 28.6187 50.5714 28.6187 57.387C28.6187 64.2025 34.1633 69.7472 40.9789 69.7472C42.7077 69.7472 44.354 69.3891 45.8495 68.7454C48.4352 67.6321 50.5671 65.6616 51.8864 63.1932C52.8123 61.4609 53.3391 59.4845 53.3391 57.387C53.3391 50.5716 47.7944 45.0267 40.9789 45.0267Z" fill="#0D2144"/>
</svg>
