<svg width="88" height="88" viewBox="0 0 88 88" fill="none" xmlns="http://www.w3.org/2000/svg">
<g clip-path="url(#clip0_164_663)">
<path d="M27.0166 46.5504H53.8846L80.1084 31.4098C81.3289 30.7053 81.7473 29.146 81.0421 27.9262L65.7421 1.75682C65.0402 0.54292 63.4816 0.1146 62.2584 0.823154L18.0916 25.9911C16.8631 26.7023 16.4613 28.2721 17.1579 29.4754L27.0166 46.5504ZM42.1971 26.8975C43.1932 25.9014 44.8068 25.9014 45.8029 26.8975L47.9844 29.079L51.7822 17.6936C52.2277 16.3589 53.6548 15.6344 55.0068 16.0826C56.3416 16.5256 57.0641 17.9699 56.6185 19.3073L51.5185 34.6073C50.9235 36.3963 48.6411 36.9474 47.2971 35.6034L42.1971 30.5034C41.201 29.5073 41.201 27.8936 42.1971 26.8975Z" fill="#0D2144"/>
<path d="M84.97 36.3505H81.7533L64.0865 46.5504H69.5C70.9098 46.5504 72.05 47.6913 72.05 49.1004C72.05 50.5102 70.9098 51.6504 69.5 51.6504H18.5C17.0908 51.6504 15.95 50.5102 15.95 49.1004C15.95 47.6913 17.0908 46.5504 18.5 46.5504H21.1277L15.2381 36.3505H3.02998C1.62084 36.3505 0.47998 37.4913 0.47998 38.9005V56.7504H87.52V38.9005C87.52 37.4913 86.3798 36.3505 84.97 36.3505Z" fill="#0D2144"/>
<path d="M87.52 56.7504H0.47998V62.0001H87.52V56.7504Z" fill="#0D2144"/>
<path d="M0.47998 84.9704C0.47998 86.3802 1.62084 87.5204 3.02998 87.5204H84.97C86.3798 87.5204 87.52 86.3802 87.52 84.9704V61.8505H0.47998V84.9704Z" fill="#0D2144"/>
</g>
<defs>
<clipPath id="clip0_164_663">
<rect width="87.04" height="87.04" fill="white" transform="translate(0.47998 0.480469)"/>
</clipPath>
</defs>
</svg>
