<svg width="90" height="90" viewBox="0 0 90 90" fill="none" xmlns="http://www.w3.org/2000/svg">
<g clip-path="url(#clip0_164_698)">
<rect x="0.199951" y="0.199951" width="89.6" height="89.6" rx="44.8" fill="white"/>
<path d="M78.7447 31.9602C78.9723 32.0179 79.1871 32.1177 79.3779 32.2546L79.7246 32.5034C79.818 32.5704 79.9301 32.6065 80.0451 32.6065C80.3487 32.6065 80.5948 32.3604 80.5948 32.0568V31.8734C80.5948 31.496 80.8814 31.1802 81.2571 31.1438L82.2019 31.0522C82.6417 31.0096 83.0816 31.1322 83.436 31.3961L84.0558 31.8578C84.7084 32.3439 85.5005 32.6065 86.3142 32.6065H88.5066C88.5905 32.6065 88.6713 32.5751 88.7332 32.5185C88.828 32.4317 88.8651 32.2984 88.8279 32.1753C88.6222 31.4941 88.402 30.8198 88.1667 30.1527C87.8838 29.3506 87.1103 28.8353 86.2599 28.8495C85.676 28.8593 85.1161 28.6175 84.7229 28.1857L84.4215 27.8546C84.2586 27.6757 84.1567 27.4498 84.1304 27.2093L84.0598 26.5643C84.005 26.063 83.4589 25.7779 83.0163 26.0193C82.8433 26.1136 82.7175 26.2757 82.6689 26.4666L82.6199 26.6593C82.3958 27.5401 81.2873 27.8262 80.6649 27.1639C80.4752 26.962 80.3646 26.6985 80.3535 26.4217L80.3384 26.0464C80.3143 25.4488 80.0434 24.8881 79.5903 24.4978L78.6295 23.6702L78.3246 23.3663C78.1257 23.168 77.8563 23.0567 77.5755 23.0567H77.5214C76.8158 23.0567 76.3222 23.7543 76.557 24.4197C76.6399 24.6547 76.8057 24.8513 77.0233 24.9726L78.9657 26.0557C79.0011 26.0754 79.0331 26.1004 79.0609 26.1299L79.16 26.2352C79.2916 26.3751 79.2512 26.6024 79.0794 26.6883C78.9806 26.7377 78.919 26.8393 78.9208 26.9497L78.929 27.4284C78.9363 27.857 78.6815 28.2468 78.2859 28.4121L78.1647 28.4627C77.9297 28.5609 77.6702 28.5844 77.4213 28.5299L76.9961 28.4369C76.8916 28.414 76.7994 28.3529 76.7376 28.2655C76.5305 27.9728 76.7525 27.5703 77.1106 27.5893L77.5633 27.6133C77.7146 27.6213 77.8599 27.553 77.9502 27.4313C78.1038 27.2244 78.0537 26.9311 77.8401 26.787L74.8963 24.801C74.7929 24.7312 74.7182 24.6264 74.686 24.5059C74.586 24.1322 74.1261 23.9965 73.8393 24.2562L73.383 24.6693C73.172 24.8604 72.8825 24.9394 72.6037 24.882L72.4029 24.8407C71.9166 24.7407 71.4158 24.927 71.1131 25.3206L69.554 27.3482C69.4629 27.4666 69.3893 27.5975 69.3353 27.7368C69.1203 28.2917 68.6093 28.6767 68.0166 28.7302L67.5819 28.7694L65.913 28.7804C65.6461 28.7822 65.3821 28.7244 65.1403 28.6113C64.5948 28.3561 64.2136 27.8445 64.1251 27.2488L63.9607 26.1428C63.9214 25.8779 63.9506 25.6073 64.0457 25.3568C64.2335 24.8624 64.6582 24.4961 65.1749 24.3832L66.0539 24.191C66.3205 24.1327 66.5962 24.1303 66.8637 24.184L68.1225 24.4364C68.4768 24.5074 68.8229 24.282 68.9011 23.9292L68.9311 23.7937C68.993 23.5146 68.8193 23.2375 68.5411 23.1715C68.2732 23.108 68.1004 22.8476 68.1459 22.576L68.253 21.9378C68.3396 21.4219 68.7467 21.0194 69.2635 20.9386L69.8594 20.8455C70.4069 20.7599 70.8965 20.4565 71.2167 20.0042L71.6258 19.4265C72.0806 18.7842 72.7728 18.3499 73.549 18.2197C73.8541 18.1686 74.1653 18.1657 74.4713 18.2111L75.4858 18.3616C75.5079 18.3649 75.5301 18.3665 75.5524 18.3665C75.8288 18.3665 76.041 18.1218 76.0018 17.8483L75.9253 17.3138C75.8454 16.7555 75.2631 16.42 74.74 16.631C74.2947 16.8107 73.7881 16.595 73.6088 16.1495L73.4654 15.7933C73.355 15.5188 73.1061 15.3244 72.813 15.2837C72.46 15.2346 72.1782 14.9645 72.1143 14.6139L72.1025 14.5493C72.0511 14.2669 72.1348 13.9767 72.3289 13.7652L72.6137 13.4549C72.7952 13.2572 73.0194 13.1035 73.2693 13.0055L74.6448 12.4662C74.8461 12.3873 75.0137 12.241 75.1193 12.0523C75.3343 11.668 75.2525 11.185 74.9173 10.8995C67.0943 4.23621 56.9667 0.199951 45.9094 0.199951C36.8247 0.199951 28.3689 2.92474 21.3013 7.59182C20.758 7.95054 21.0223 8.76864 21.6733 8.76359C21.7884 8.76269 21.9019 8.79151 22.0027 8.84727L22.5445 9.14702C22.751 9.26124 22.9731 9.34455 23.2038 9.39428L24.4156 9.65556C24.6204 9.69972 24.7794 9.86134 24.8202 10.0668C24.8676 10.3057 25.0728 10.4806 25.3162 10.4896L27.173 10.5579C27.5202 10.5707 27.7631 10.2185 27.6279 9.89849C27.5555 9.72719 27.3898 9.6139 27.2039 9.60863L25.5176 9.56084C25.2639 9.55365 25.1458 9.24308 25.3306 9.06911C25.4098 8.99455 25.4396 8.88137 25.4073 8.77749L25.3591 8.62195C25.2882 8.39378 25.0771 8.23828 24.8382 8.23828H24.7637C24.1417 8.23828 23.8785 7.44582 24.377 7.07372L25.1975 6.4612C25.368 6.33396 25.575 6.26522 25.7877 6.26522H26.9431C27.6021 6.26522 28.2212 6.5809 28.6082 7.11426C28.9714 7.61477 29.5405 7.92536 30.1579 7.96007L30.5243 7.98066C30.9277 8.00334 31.3221 7.85614 31.6121 7.57476L32.107 7.0944C32.2509 6.95472 32.4674 6.92115 32.6468 7.01069C32.9376 7.15576 32.9984 7.54432 32.7659 7.77132L31.9621 8.55605C31.7303 8.78231 31.4214 8.91154 31.0975 8.91744C30.4359 8.9295 29.3661 8.94921 29.4432 8.94921C30.3238 8.94921 30.3342 10.4919 31.2145 10.4676L31.9756 10.4466C32.2226 10.4397 32.4419 10.287 32.5339 10.0578C32.6233 9.83522 32.833 9.68415 33.0725 9.66989L34.0913 9.60922C34.3778 9.59216 34.6168 9.38419 34.6732 9.10282L34.6988 8.9755C34.755 8.69567 34.5686 8.42482 34.2872 8.37718C33.9746 8.32426 33.7872 8.00013 33.8973 7.70279L33.9489 7.56334C34.0172 7.37871 34.1681 7.23672 34.3565 7.17964L34.7207 7.0693C34.8476 7.03086 34.9801 7.01457 35.1126 7.02115L36.109 7.07068C36.7671 7.10339 37.0576 7.91513 36.5696 8.35795C36.3713 8.53786 36.2857 8.81081 36.3456 9.07173L36.3754 9.20125C36.4587 9.56405 36.7552 9.83916 37.1232 9.89526C37.6919 9.98197 38.1968 9.52431 38.1662 8.94977L38.1526 8.69474C38.1294 8.25883 38.3626 7.84943 38.7494 7.64707L39.3853 7.3144C39.6281 7.18737 39.8922 7.10612 40.1644 7.07472L41.3091 6.94267C42.1914 6.84089 43.0849 6.97684 43.897 7.33645L46.1963 8.35455C46.6009 8.53372 46.8618 8.93461 46.8618 9.37713V9.72649C46.8618 10.0343 47.0713 10.3027 47.37 10.3773C47.7929 10.4831 48.0042 10.9577 47.7999 11.3427L47.7449 11.4463C47.6126 11.6955 47.3535 11.8513 47.0713 11.8513H46.3161C45.903 11.8513 45.5324 12.1051 45.383 12.4902C45.2024 12.9558 44.7062 13.217 44.2201 13.1023L43.1534 12.8506C42.312 12.6521 42.1649 11.5175 42.9278 11.111L42.9869 11.0795C43.5425 10.7835 43.6248 10.0206 43.1451 9.61287C42.9543 9.45064 42.704 9.37614 42.4555 9.40757L40.0309 9.71426C39.9491 9.72461 39.8733 9.76264 39.8161 9.82203L39.6508 9.9936C39.6487 9.99571 39.6456 9.99638 39.6429 9.99529C39.6398 9.99406 39.6363 9.99509 39.6344 9.99778L39.5966 10.0503C39.5941 10.0538 39.5914 10.0571 39.5884 10.0602L38.9983 10.6733C38.8355 10.8425 38.6164 10.9465 38.3823 10.9657L37.8086 11.0128C37.5586 11.0333 37.3788 11.2623 37.4183 11.51L37.4201 11.5216C37.4425 11.6623 37.5364 11.7814 37.6681 11.8359L37.8431 11.9084C37.9038 11.9336 37.9413 11.9952 37.9357 12.0607C37.9298 12.1308 37.8762 12.1875 37.8065 12.1974L37.1006 12.2976C36.9149 12.3239 36.7698 12.4712 36.7462 12.6572C36.7208 12.8571 36.556 13.0101 36.3549 13.0205L36.1803 13.0295C35.8588 13.0462 35.5772 12.8161 35.5295 12.4978L35.5272 12.4823C35.4691 12.0944 35.08 11.8486 34.7048 11.9627L33.6436 12.2854C33.5238 12.3218 33.4087 12.3722 33.3007 12.4354L30.454 14.1018C29.8736 14.4415 29.5931 15.1283 29.7698 15.7772C29.8655 16.129 30.0871 16.4334 30.3924 16.6327L30.6483 16.7998C30.9026 16.9657 31.1905 17.0733 31.4913 17.1148L32.1949 17.2118C32.8091 17.2965 33.2666 17.8214 33.2666 18.4414V19.1746C33.2666 19.5538 33.6059 19.843 33.9803 19.783C34.1799 19.751 34.351 19.6232 34.4384 19.441L34.8494 18.5835C35.1046 18.0511 35.5687 17.648 36.1315 17.4698C37.0199 17.1885 37.6237 16.364 37.6237 15.4321V14.8043C37.6237 14.2681 37.8752 13.763 38.3031 13.4399C38.7092 13.1332 39.2309 13.0234 39.7262 13.1404L41.2654 13.5038C41.7627 13.6212 42.0941 14.0913 42.0376 14.5991L41.9911 15.0164C41.9492 15.3925 42.2436 15.7215 42.6221 15.7215C42.7192 15.7215 42.8149 15.6993 42.902 15.6565L43.357 15.4329C44.1863 15.0255 45.1609 15.604 45.2004 16.5272C45.2187 16.9537 45.4483 17.343 45.8127 17.5653L46.3158 17.8722C46.6994 18.1062 46.9249 18.5306 46.9043 18.9795L46.9002 19.0684C46.8794 19.5204 46.5841 19.9135 46.1558 20.0593L45.5499 20.2656C45.3673 20.3278 45.2601 20.5168 45.3005 20.7055C45.3258 20.8233 45.4053 20.9222 45.5149 20.9721L46.8897 21.5977C47.1462 21.7144 47.3067 21.9746 47.2961 22.2562L47.2831 22.5975C47.2772 22.753 47.1564 22.8797 47.0014 22.8929L46.7216 22.9167C46.7107 22.9177 46.7003 22.9036 46.6974 22.8931C46.6957 22.8869 46.6926 22.8881 46.6864 22.8862L44.5323 22.222C44.3341 22.1609 44.1897 21.99 44.1626 21.7844L44.1019 21.3236C44.1019 21.3234 44.1017 21.3232 44.1015 21.3232C44.101 21.3232 44.1008 21.3226 44.1012 21.3223L44.7261 20.8929C44.7901 20.8489 44.8284 20.7762 44.8284 20.6985V20.4551C44.8284 20.2429 44.6841 20.0579 44.4784 20.0062L44.4539 20.0001C44.226 19.9428 43.9936 20.0763 43.9281 20.302C43.8809 20.4651 43.7433 20.586 43.5755 20.612L42.4984 20.7785C42.4846 20.7806 42.4705 20.7795 42.4573 20.7751L42.381 20.7501C42.3614 20.7436 42.3411 20.7582 42.3411 20.779C42.3411 20.794 42.3301 20.8068 42.3153 20.809L42.0842 20.8441C41.9541 20.8638 41.8263 20.7972 41.7679 20.6793L41.6071 20.3544C41.5239 20.1863 41.3842 20.0529 41.2124 19.9774L41.1943 19.9695C41.0861 19.922 40.9693 19.8975 40.8512 19.8975H40.3014C40.1405 19.8975 39.9846 19.9534 39.8605 20.0558L39.8557 20.0598C39.6991 20.1889 39.6084 20.3812 39.6084 20.5841C39.6084 20.8766 39.7956 21.1363 40.0731 21.2288L40.424 21.3458C40.4373 21.3502 40.451 21.3534 40.4649 21.3554L41.0811 21.4426C41.1353 21.4503 41.1456 21.5242 41.0955 21.5464C41.0885 21.5495 41.0822 21.554 41.077 21.5597L40.6094 22.0781C40.4637 22.2396 40.2079 22.2316 40.0726 22.0613C40.0254 22.0019 39.9603 21.9594 39.8871 21.94L39.7274 21.8977C39.4438 21.8227 39.1416 21.8991 38.9279 22.1001L37.3931 23.543C37.3367 23.596 37.3398 23.6865 37.3997 23.7355C37.4697 23.7929 37.4597 23.9029 37.3805 23.9468L34.8883 25.3271C34.708 25.427 34.5438 25.5533 34.401 25.7018L32.2325 27.9577C31.9904 28.2095 31.8328 28.5305 31.7817 28.876C31.7115 29.3497 31.4426 29.771 31.0424 30.034L29.2162 31.2343C29.0123 31.3683 28.8228 31.5231 28.6507 31.6962L27.9499 32.401C27.6891 32.6632 27.5519 33.0238 27.5722 33.393L27.6089 34.0575C27.6466 34.7409 26.9421 35.2178 26.3216 34.9289C25.9997 34.779 25.795 34.4549 25.798 34.0998L25.7984 34.0555C25.803 33.5137 25.365 33.0722 24.8232 33.0724L21.5326 33.0736C20.8685 33.0738 20.2138 33.2302 19.6213 33.53L19.3379 33.6734C18.3273 34.1848 17.4967 34.9922 16.9569 35.9878L16.8071 36.2641C16.668 36.5205 16.5592 36.7922 16.4829 37.0736L16.3166 37.6865C16.1937 38.1394 16.2332 38.6211 16.4281 39.048C16.7187 39.6843 17.3191 40.1238 18.0135 40.2085L18.1954 40.2307C18.748 40.2981 19.3065 40.1649 19.7694 39.8555L21.7147 38.555C22.0887 38.3049 22.5977 38.4974 22.7126 38.9324C22.7546 39.0917 22.7352 39.2609 22.6581 39.4065L22.52 39.6673C22.1317 40.4005 22.5737 41.2991 23.3916 41.4389C23.9477 41.534 24.3658 41.9984 24.4023 42.5614L24.4705 43.6141C24.5471 44.7952 25.4249 45.7691 26.5917 45.9675L26.6878 45.9839C27.6112 46.1409 28.5495 45.8041 29.1622 45.0957L29.3442 44.8853C30.0249 44.0983 31.0773 43.7397 32.0971 43.9472L32.5269 44.0347C32.9611 44.1231 33.346 44.372 33.6048 44.7317C33.9569 45.2213 34.5352 45.4965 35.1373 45.4611L36.5213 45.3795C36.6894 45.3696 36.8252 45.2385 36.841 45.0709C36.8635 44.8338 37.1157 44.692 37.33 44.7959L38.1021 45.1706C38.258 45.2462 38.3898 45.3636 38.483 45.5096L39.2397 46.6955C39.7008 47.4183 40.4947 47.8605 41.3519 47.8723C42.2534 47.8847 43.0811 48.3728 43.5284 49.1555L43.5574 49.2062C43.7503 49.5439 43.864 49.921 43.8897 50.3091C43.9561 51.3098 44.5997 52.1801 45.5371 52.5367L46.4461 52.8826C46.8963 53.0539 47.3732 53.1441 47.8549 53.1491L49.745 53.1687C50.5709 53.1772 51.3341 53.611 51.7639 54.3163L51.9491 54.6202C52.1289 54.9152 52.4089 55.1356 52.7379 55.2412L52.762 55.2489C53.4517 55.4701 53.8617 56.1779 53.7103 56.8862C53.6653 57.0969 53.5726 57.2945 53.4394 57.4638L52.7888 58.2902C52.0941 59.1727 51.6639 60.2341 51.5481 61.3513L51.2885 63.8557C51.2104 64.6093 50.8309 65.2993 50.2363 65.7689L50.1968 65.8C49.7046 66.1887 49.0912 66.3916 48.4643 66.373L47.9058 66.3565C47.2666 66.3376 46.6688 66.6718 46.3502 67.2263C46.1331 67.6041 46.0662 68.0498 46.1626 68.4747L46.2991 69.0758C46.5196 70.0471 46.2913 71.0661 45.6776 71.8505L44.0878 73.8823C43.9312 74.0824 43.7916 74.2951 43.6702 74.5183C43.2088 75.3665 42.492 76.0478 41.6215 76.4655L40.5548 76.9774C40.3845 77.0592 40.203 77.1152 40.0163 77.1436L38.9031 77.3133C38.6936 77.3452 38.5326 77.5152 38.5121 77.7261C38.4905 77.9483 38.6306 78.1543 38.8452 78.2159L39.1258 78.2963C39.4537 78.3904 39.6566 78.7181 39.5945 79.0535C39.5694 79.1895 39.5023 79.3143 39.4026 79.4102L38.9674 79.8293C38.6769 80.1089 38.6464 80.5634 38.8967 80.8794C39.0404 81.0608 39.2571 81.1694 39.4885 81.1758L39.5404 81.1773C40.035 81.1911 40.418 81.6147 40.3822 82.1081C40.3767 82.1845 40.3611 82.2599 40.3357 82.3322L40.0633 83.1105C40.0354 83.1901 40.0155 83.2723 40.004 83.3559C39.9445 83.7869 40.1103 84.2183 40.4431 84.4985L41.5483 85.429C41.7421 85.5922 41.82 85.8552 41.7461 86.0976C41.6637 86.3682 41.4116 86.5513 41.1287 86.546L39.8074 86.5209C39.2473 86.5102 38.709 86.3026 38.2869 85.9344L37.1311 84.9263C36.5727 84.4392 36.1004 83.8615 35.734 83.2175L35.0016 81.9301C34.493 81.0362 34.2661 80.0096 34.3503 78.9846L34.4097 78.2628C34.4738 77.4827 34.25 76.7062 33.7805 76.08L33.6422 75.8956C33.1977 75.3027 33.0194 74.5517 33.15 73.8223L33.4856 71.9482C33.5381 71.6549 33.359 71.3697 33.0719 71.2896C32.822 71.22 32.6492 70.9923 32.6492 70.7329V66.5354C32.6492 64.6243 31.7873 62.776 30.2023 61.7082C30.0353 61.5957 29.9212 61.5266 29.8931 61.5266C29.8484 61.5266 29.7078 61.4968 29.5324 61.455C28.9075 61.306 28.4416 60.7888 28.3277 60.1566C28.2787 59.8848 28.1629 59.6293 27.9906 59.4134L25.6907 56.5302C25.169 55.8762 24.9702 55.0217 25.1497 54.2046C25.1838 54.0493 25.2045 53.8914 25.2116 53.7326L25.2546 52.7664C25.2908 51.953 25.7031 51.2027 26.3704 50.736L26.6853 50.5158C27.2835 50.0974 27.6028 49.3836 27.5159 48.6587C27.4033 47.72 26.6423 46.9921 25.6995 46.9213L25.0343 46.8714C24.3059 46.8167 23.6281 46.4785 23.1463 45.9295L22.3497 45.0218C21.6113 44.1803 20.6431 43.5728 19.5641 43.274L19.3188 43.2061L18.634 43.08C18.3302 43.0241 18.1236 42.7398 18.1642 42.4336C18.2061 42.1182 17.986 41.8281 17.671 41.7833L16.9726 41.6842C16.8159 41.6619 16.6757 41.7836 16.6757 41.9419C16.6757 42.1112 16.5167 42.2354 16.3525 42.1944L13.6816 41.528C13.0922 41.381 12.58 41.0167 12.2475 40.5082L11.5506 39.4421C11.3292 39.1034 11.3126 38.6703 11.5074 38.3156C11.7063 37.9535 11.6844 37.5102 11.4509 37.1694L9.67147 34.5723C9.46382 34.2693 9.3259 33.924 9.26762 33.5612L8.99976 31.8939C8.96043 31.649 8.74916 31.469 8.50119 31.469C8.19651 31.469 7.96122 31.7368 8.00042 32.0389L8.20423 33.6098C8.24064 33.8905 8.3394 34.1594 8.49326 34.3969L9.80557 36.4229C9.91225 36.5876 9.95236 36.7867 9.91776 36.9798C9.84372 37.3932 9.45334 37.6721 9.03827 37.608L8.80858 37.5725C8.50799 37.5261 8.24424 37.347 8.09033 37.0846L7.08819 35.3765C6.73413 34.773 6.54747 34.086 6.54747 33.3864V31.9447C6.54747 31.3135 6.1855 30.7382 5.61645 30.4649L4.94732 30.1437C4.78725 30.0668 4.68543 29.905 4.68543 29.7274C4.68543 29.2249 4.02548 29.0961 3.85193 29.5678C2.08077 34.3808 1.11133 39.5786 1.11133 45C1.11133 69.7032 21.2081 89.8 45.9113 89.8C59.5563 89.8 71.7922 83.6647 80.0158 74.0103C80.276 73.7048 80.0563 73.2403 79.6551 73.2403C79.392 73.2403 79.1788 73.027 79.1788 72.764V71.0024C79.1788 70.5217 79.024 70.0538 78.7374 69.668L78.3237 69.1111C77.7685 68.3636 77.4686 67.4572 77.4686 66.526V65.3515C77.4686 64.7283 77.2206 64.1307 76.7793 63.6907L76.7597 63.6712C76.3751 63.2878 76.1407 62.7792 76.0989 62.2378C76.0661 61.8125 76.1538 61.3866 76.3519 61.0088L76.6218 60.494C77.299 59.2023 77.2741 57.655 76.5555 56.3858L75.0162 53.667C74.7235 53.1501 74.5975 52.5555 74.6553 51.9643L74.7308 51.1929C74.8435 50.0395 74.0034 49.0116 72.8506 48.8925L72.7831 48.8855C72.3454 48.8403 71.9367 48.6457 71.6255 48.3346C71.2663 47.9754 70.7791 47.7735 70.271 47.7735H69.8209C69.3982 47.7735 68.991 47.9328 68.6804 48.2196C68.3699 48.5064 67.9626 48.6656 67.5399 48.6656H65.0047C64.9088 48.6656 64.8228 48.7249 64.7888 48.8146C64.7548 48.9043 64.6689 48.9636 64.573 48.9636H63.6068C63.1375 48.9636 62.6909 48.7613 62.3813 48.4085L59.4819 45.1038C58.9083 44.4499 58.5956 43.6076 58.6036 42.7377L58.6224 40.7022C58.6247 40.4544 58.7802 40.2339 59.0129 40.1486C59.2113 40.0759 59.3563 39.9035 59.394 39.6956L59.487 39.1813C59.5439 38.8672 59.3025 38.5783 58.9833 38.5783C58.7519 38.5783 58.5493 38.423 58.4891 38.1996L58.375 37.7762C58.2577 37.341 58.4219 36.8787 58.7873 36.6149L62.1746 34.1701C62.7742 33.7374 63.1294 33.043 63.1294 32.3036C63.1294 31.4675 63.5827 30.6972 64.3135 30.2912L64.7118 30.07C65.2591 29.7659 65.8862 29.6362 66.5092 29.698L66.534 29.7004H67.5627C68.1954 29.7004 68.8183 29.5438 69.3758 29.2446C69.8446 28.9929 70.3607 28.8416 70.8912 28.8003L73.6247 28.5874C74.4277 28.5249 75.1138 29.1596 75.1138 29.965C75.1138 30.5975 75.5432 31.1493 76.1563 31.3046L78.7447 31.9602ZM66.5216 16.3275C66.5221 16.162 66.5702 16.0002 66.6602 15.8614L66.6907 15.8142C66.8446 15.5768 67.0886 15.4112 67.366 15.355C67.9385 15.2392 68.4991 15.6077 68.6169 16.1799L68.7163 16.6626C68.7531 16.8415 68.8212 17.0125 68.9174 17.1677L69.4519 18.0307C69.5205 18.1414 69.5979 18.2465 69.6834 18.3448L69.9748 18.6798C70.0406 18.7555 70.1239 18.8141 70.2173 18.8506C70.613 19.005 70.74 19.5024 70.4667 19.8275L70.3322 19.9875C70.2023 20.142 70.017 20.2393 69.8161 20.2586L68.398 20.3941H68.0247C67.5271 20.3941 67.1374 19.9659 67.1843 19.4705L67.1967 19.3386C67.2242 19.048 67.4381 18.8092 67.7241 18.7501L67.8519 18.7236C68.1195 18.6683 68.2996 18.4165 68.2654 18.1453C68.2458 17.9895 68.1572 17.8507 68.0242 17.7672L67.2255 17.2661L66.8962 17.0405C66.6611 16.8794 66.5209 16.6125 66.5216 16.3275ZM64.1038 18.8671C64.1047 18.8671 64.1055 18.8667 64.1059 18.8659L64.635 18.0176C64.8682 17.6436 65.2403 17.3775 65.6696 17.2776L65.9173 17.22C66.104 17.1765 66.2998 17.1943 66.4757 17.2706L66.5233 17.2913C66.8454 17.4311 67.0429 17.7603 67.0148 18.1104C66.9952 18.3529 66.8691 18.5744 66.6704 18.7149L65.3462 19.6513C65.2129 19.7456 65.0537 19.7962 64.8905 19.7962H64.5658C64.3093 19.7962 64.1013 19.5882 64.1013 19.3316V18.8696C64.1013 18.8682 64.1024 18.8671 64.1038 18.8671ZM39.819 24.004C39.7869 24.2226 39.6085 24.3903 39.3883 24.4087L39.345 24.4123C39.0757 24.4348 38.8504 24.2107 38.8714 23.9412C38.8783 23.8535 38.9114 23.7699 38.9664 23.7012L39.0176 23.6374C39.1733 23.443 39.4565 23.4103 39.6524 23.5641C39.7806 23.6647 39.8451 23.8262 39.8215 23.9874L39.819 24.004ZM43.1114 23.0722C43.0637 23.1713 42.9674 23.2377 42.8579 23.2471L42.7581 23.2557C42.5442 23.274 42.3675 23.4305 42.3236 23.6407L42.3159 23.6775C42.286 23.8209 42.1987 23.9458 42.0744 24.0233L41.9151 24.1225C41.8251 24.1786 41.7231 24.2125 41.6175 24.2213L41.1588 24.2599C41.0647 24.2679 40.9805 24.2012 40.9681 24.1076C40.9674 24.1023 40.9667 24.0971 40.9661 24.0921C40.9555 24.0105 40.8863 23.9488 40.8041 23.9488C40.7149 23.9488 40.6427 23.8765 40.6427 23.7874V23.6176C40.6427 23.4348 40.7909 23.2865 40.9738 23.2865H41.5559C41.7791 23.2865 41.9794 23.1493 42.0601 22.9412C42.1393 22.7366 42.3345 22.6001 42.5539 22.596L42.6535 22.5941C42.6854 22.5934 42.7172 22.5964 42.7484 22.6029L42.8944 22.6332C43.0923 22.6742 43.199 22.8901 43.1114 23.0722Z" fill="#0D2144"/>
</g>
<rect x="0.699951" y="0.699951" width="88.6" height="88.6" rx="44.3" stroke="#0D2144"/>
<defs>
<clipPath id="clip0_164_698">
<rect x="0.199951" y="0.199951" width="89.6" height="89.6" rx="44.8" fill="white"/>
</clipPath>
</defs>
</svg>
