<svg width="24" height="18" viewBox="0 0 24 18" fill="none" xmlns="http://www.w3.org/2000/svg">
<g clip-path="url(#clip0_602_1266)">
<path d="M0 11.7097V14.8839C0 16.2 1.04516 17.129 2.32258 17.129H21.6774C22.9548 17.129 24 16.2 24 14.8839V11.7097H0Z" fill="#1EB53A"/>
<path d="M21.6774 0.870972H2.32258C1.04516 0.870972 0 1.8 0 3.11613V6.29033H24V3.11613C24 1.8 22.9548 0.870972 21.6774 0.870972Z" fill="#0099B5"/>
<path d="M24 6.29031H0V11.7097H24V6.29031Z" fill="white"/>
<path d="M21.6774 17.129C22.9548 17.129 24 16.2 24 14.8839V11.7097H15.2516L21.6774 17.129Z" fill="#11A325"/>
<path d="M21.6774 0.870972H2.32257L8.70967 6.29033H24V3.11613C24 1.8 22.9548 0.870972 21.6774 0.870972Z" fill="#078C9E"/>
<path d="M15.2516 11.7097H24V6.29031H8.70966L15.2516 11.7097Z" fill="#E1EAE2"/>
<path d="M21.6774 0.870972H2.32257L20.2452 6.29033H24V3.11613C24 1.8 22.9548 0.870972 21.6774 0.870972Z" fill="#048089"/>
<path d="M23.9999 7.37418V6.29031H20.0516L23.9999 7.37418Z" fill="#C2CEC3"/>
<path d="M24 14.8452C24 16.3161 22.9548 17.129 21.6774 17.129H2.32258C1.04516 17.129 0 16.1226 0 14.8065" fill="#098914"/>
<path d="M24 5.90323H0V6.29033H24V5.90323Z" fill="#CE1126"/>
<path d="M8.70971 6.29033H24V5.90323H8.20648L8.70971 6.29033Z" fill="#A8071E"/>
<path d="M24 11.7097H0V12.0968H24V11.7097Z" fill="#CE1126"/>
<path d="M15.2516 11.7097L15.7161 12.0968H24V11.7097H15.2516Z" fill="#A8071E"/>
<path d="M3.63872 1.95485C3.5613 1.95485 3.48388 1.91614 3.40646 1.91614C2.59356 1.91614 1.89679 2.5742 1.89679 3.42582C1.89679 4.27743 2.55485 4.9355 3.40646 4.9355C3.48388 4.9355 3.5613 4.9355 3.63872 4.89679C2.94195 4.78066 2.40001 4.1613 2.40001 3.42582C2.40001 2.65162 2.94195 2.07098 3.63872 1.95485Z" fill="white"/>
<path d="M4.37421 4.50971L4.29679 4.31616L4.21937 4.50971H4.02582L4.18066 4.66455L4.14195 4.8581L4.29679 4.74197L4.49033 4.8581L4.41291 4.66455L4.60646 4.50971H4.37421Z" fill="white"/>
<path d="M5.57422 4.50971L5.4968 4.31616L5.41938 4.50971H5.22583L5.38067 4.66455L5.34196 4.8581L5.4968 4.74197L5.69035 4.8581L5.61293 4.66455L5.76777 4.50971H5.57422Z" fill="white"/>
<path d="M6.77417 4.50971L6.69675 4.31616L6.61933 4.50971H6.42578L6.58062 4.66455L6.5032 4.8581L6.69675 4.74197L6.8903 4.8581L6.81288 4.66455L6.96772 4.50971H6.77417Z" fill="white"/>
<path d="M7.97418 4.50971L7.89676 4.31616L7.81934 4.50971H7.62579L7.78063 4.66455L7.70321 4.8581L7.89676 4.74197L8.09031 4.8581L8.01289 4.66455L8.16773 4.50971H7.97418Z" fill="white"/>
<path d="M9.17419 4.50971L9.09677 4.31616L9.01935 4.50971H8.82581L8.98064 4.66455L8.90323 4.8581L9.09677 4.74197L9.25161 4.8581L9.2129 4.66455L9.36774 4.50971H9.17419Z" fill="white"/>
<path d="M5.4968 3.11615L5.45809 3.3097H5.22583L5.41938 3.46454L5.34196 3.65809L5.4968 3.54196L5.69035 3.65809L5.61293 3.46454L5.80648 3.3097H5.57422L5.4968 3.11615Z" fill="white"/>
<path d="M6.69675 3.11615L6.65804 3.3097H6.42578L6.61933 3.46454L6.54191 3.65809L6.69675 3.54196L6.8903 3.65809L6.81288 3.46454L7.00643 3.3097H6.77417L6.69675 3.11615Z" fill="white"/>
<path d="M7.89676 3.11615L7.85805 3.3097H7.62579L7.81934 3.46454L7.74192 3.65809L7.89676 3.54196L8.09031 3.65809L8.01289 3.46454L8.20644 3.3097H7.97418L7.89676 3.11615Z" fill="white"/>
<path d="M9.17419 3.3097L9.09677 3.11615L9.05806 3.3097H8.82581L8.98064 3.46454L8.94194 3.65809L9.09677 3.54196L9.29032 3.65809L9.2129 3.46454L9.40645 3.3097H9.17419Z" fill="white"/>
<path d="M6.58069 2.26452L6.50327 2.45807L6.69682 2.34194L6.85166 2.45807L6.81295 2.26452L6.96779 2.10969H6.77424L6.69682 1.91614L6.6194 2.10969H6.38715L6.58069 2.26452Z" fill="white"/>
<path d="M7.78065 2.26452L7.70323 2.45807L7.89677 2.34194L8.05161 2.45807L8.0129 2.26452L8.16774 2.10969H7.97419L7.89677 1.91614L7.81936 2.10969H7.5871L7.78065 2.26452Z" fill="white"/>
<path d="M8.98066 2.26452L8.90324 2.45807L9.09679 2.34194L9.25163 2.45807L9.21292 2.26452L9.36775 2.10969H9.1355L9.09679 1.91614L9.01937 2.10969H8.78711L8.98066 2.26452Z" fill="white"/>
</g>
<defs>
<clipPath id="clip0_602_1266">
<rect y="0.870972" width="24" height="16.2581" rx="2" fill="white"/>
</clipPath>
</defs>
</svg>
