<svg width="14" height="14" viewBox="0 0 14 14" fill="none" xmlns="http://www.w3.org/2000/svg">
<path fill-rule="evenodd" clip-rule="evenodd" d="M13.42 2.26908C13.8555 1.83361 13.8555 1.12757 13.42 0.692095C12.9845 0.256624 12.2785 0.256624 11.843 0.692095L7.11208 5.42304L2.26907 0.580022C1.83359 0.14455 1.12756 0.14455 0.692084 0.580021C0.256612 1.01549 0.256613 1.72153 0.692084 2.157L5.5351 7.00002L0.692083 11.843C0.256611 12.2785 0.256611 12.9845 0.692081 13.42C1.12755 13.8555 1.83359 13.8555 2.26906 13.42L7.11208 8.577L11.843 13.3079C12.2785 13.7434 12.9845 13.7434 13.42 13.3079C13.8555 12.8725 13.8555 12.1664 13.42 11.731L8.68906 7.00002L13.42 2.26908Z" fill="white"/>
</svg>
