<svg width="37" height="32" viewBox="0 0 37 32" fill="none" xmlns="http://www.w3.org/2000/svg">
<path d="M36.6184 0.53443V10.6479C32.6264 12.2188 29.0587 14.6976 26.2004 17.8861C25.6835 18.4653 25.1991 19.0394 24.7471 19.6082L14.7026 19.5894C14.869 19.8644 15.0353 20.1395 15.1954 20.4145C17.2806 23.9611 18.7324 27.8408 19.4863 31.8812H9.67723C9.35894 29.0279 8.21993 26.3268 6.39708 24.1024C4.70557 22.0586 2.49738 20.5008 0 19.5894L0 9.30091C3.52238 9.85996 6.84037 11.3142 9.63329 13.5232C12.0628 15.4703 13.469 17.5486 14.6963 19.58C16.3223 16.4016 19.4298 11.2136 24.6372 6.85067C28.1095 3.88431 32.2026 1.7265 36.6184 0.53443V0.53443ZM14.2883 11.0698C15.3879 11.0698 16.4628 10.7451 17.377 10.1368C18.2913 9.52849 19.0038 8.66387 19.4244 7.65232C19.8451 6.64076 19.955 5.52771 19.7402 4.45396C19.5255 3.38021 18.9957 2.39398 18.218 1.62004C17.4402 0.846089 16.4494 0.319186 15.3709 0.105974C14.2923 -0.107239 13.1745 0.00281648 12.1588 0.42222C11.1431 0.841624 10.2751 1.55153 9.66462 2.46216C9.05417 3.37278 8.72866 4.44321 8.72929 5.53804C8.72887 6.26487 8.8724 6.98464 9.15166 7.65618C9.43092 8.32771 9.84042 8.93784 10.3567 9.45163C10.8731 9.96543 11.4861 10.3728 12.1607 10.6505C12.8353 10.9282 13.5583 11.0707 14.2883 11.0698Z" fill="#0083FF"/>
</svg>
